<?xml version="1.0" encoding="utf-8"?>
<!-- Generator: Adobe Illustrator 24.2.1, SVG Export Plug-In . SVG Version: 6.00 Build 0)  -->
<svg version="1.1" xmlns="http://www.w3.org/2000/svg" xmlns:xlink="http://www.w3.org/1999/xlink" x="0px" y="0px"
	 viewBox="0 0 595.5 108.8" style="enable-background:new 0 0 595.5 108.8;" xml:space="preserve">
<style type="text/css">
	.st0{fill-rule:evenodd;clip-rule:evenodd;fill:#221F20;}
	.st1{fill:#221F20;}
	.st2{fill:#2D64AA;}
	.st3{fill-rule:evenodd;clip-rule:evenodd;fill:#2D64AA;}
	.st4{fill:none;stroke:#221F20;stroke-width:0.3;stroke-miterlimit:3.864;}
	.st5{fill:none;stroke:#221F20;stroke-width:0.305;stroke-miterlimit:3.864;}
	.st6{fill:#221F20;stroke:#221F20;stroke-width:0.3;stroke-miterlimit:3.864;}
</style>
<path id="path248" class="st0" d="M458,85.1h7.5c3.6,0,7.1,0.4,7.1,4.1c0,1.9-1.2,4.5-5,4.5H458V85.1z M458,74.5h6.5
	c5.9,0,6.7,2.7,6.7,4.2c0,1.6-1,3.7-5.3,3.7H458V74.5z M454.2,96.5h14.7c2.1,0,7.6-1.9,7.6-7.1c0-4.6-4.3-5.7-5.1-6
	c2.5-0.9,3.8-3,3.8-5.3c0-4.9-5.4-6.4-7.9-6.4h-13L454.2,96.5"/>
<path id="path250" class="st0" d="M491.6,90.7c0,0.6-2.2,3.6-6.9,3.5c-1.9,0-3.8-0.9-3.8-3.1c0-1.3,1.4-2.2,2-2.4
	c2-0.8,5.8-0.7,8.6-1.6V90.7L491.6,90.7z M495.1,81.2c-0.1-1.8-2.3-2.9-5-3.5c-1.3-0.3-2.5-0.3-3.7-0.3c-2,0-3.3,0.3-4.4,0.8
	c-2.2,0.9-3.3,2.5-3.6,3.5l-0.1,1.6h3.2c0.1-0.8,0.3-3.3,4.4-3.3c2.3,0,5.3,0.6,5.6,1.8V84c0,1-1.3,1.3-1.7,1.4
	c-2,0.4-4,0.1-7.9,1.1c-2.2,0.6-4.3,1.7-4.5,4.7c-0.3,3.5,2.7,5.6,7.5,5.6c2.8,0,5.1-1.5,6.8-2.6c0.1,1.2,1.6,2.6,3.2,2.6
	c1.1,0,1.8-0.1,2.6-0.3v-2.3c-0.2,0.1-0.5,0.1-0.8,0.1c-0.9,0-1.6-0.5-1.6-1.1L495.1,81.2"/>
<path id="path252" class="st1" d="M498.7,78.4v17.9h3.4v-9.5c-0.1-4.8,3-6.3,5.9-6.3c2.4,0,4.3,1.2,4.3,3.4v12.5h3.4V82.4
	c-0.5-2.7-2.3-3.5-3.4-4c-0.5-0.2-2-0.4-3.5-0.5c-1.5,0-3.2,0.2-4.2,0.8c-0.8,0.3-1.7,1.1-2.4,1.9h-0.1v-2.3L498.7,78.4"/>
<path id="path254" class="st1" d="M518.4,71.4v24.9h3.4v-6.7l3.4-2.8l7.1,9.6h4.2l-8.7-11.7l7.5-6.2h-4.4l-9.1,7.5V71.4H518.4"/>
<path id="path256" class="st1" d="M158.9,79.1c-1.8-5.1-5.8-8.2-12.1-8.1c-3.7,0-7,1.5-8.3,2.6c-3.5,2.8-4.7,7-4.7,10.5
	c0,3.5,1.3,7.7,4.7,10.5c1.3,1,4.5,2.5,8.3,2.6c6.8,0.1,11.4-4.2,12.7-9.9h-3.9c-1.5,4.7-4.2,7-8.6,7c-2.4,0-4.8-0.8-6.4-2.4
	c-1.8-1.7-2.9-4.7-2.9-7.8c-0.1-3,1.1-6,2.9-7.8c1.6-1.6,4-2.4,6.4-2.4c4.1,0,6.7,2.1,8,5.2L158.9,79.1"/>
<path id="path258" class="st1" d="M161.6,96.3h3.4V84.7c0-1.6,0.6-2,1.3-2.7c1.3-0.8,2.3-1.4,3.4-1.5c1.1-0.2,2.2,0,3.6,0.5
	c0.6,0.2,2,0.9,1.8,3.1v12.2h3.4V82.7c0.1-0.5-0.4-3.3-3.5-4.2c-1.2-0.4-2.4-0.6-3.5-0.6c-1.1,0-2,0.2-2.9,0.5
	c-1.7,0.6-3,1.5-3.7,2.2v-9.1h-3.4L161.6,96.3"/>
<path id="path260" class="st0" d="M181.6,75h3.4v-3.6h-3.4V75z M181.6,96.3h3.4V78.4h-3.4V96.3z"/>
<path id="path262" class="st1" d="M188.3,78.4v17.9h3.4v-9.5c-0.1-4.8,3-6.3,5.9-6.3c2.4,0,4.3,1.2,4.3,3.4v12.5h3.4V82.4
	c-0.5-2.7-2.3-3.5-3.4-4c-0.5-0.2-2-0.4-3.5-0.5c-1.6,0-3.2,0.2-4.2,0.8c-0.8,0.3-1.7,1.1-2.4,1.9h-0.1v-2.3L188.3,78.4"/>
<path id="path264" class="st0" d="M221.5,90.8c0,0.6-2.2,3.6-6.9,3.5c-1.9,0-3.8-0.9-3.8-3.1c0-1.3,1.4-2.2,2-2.4
	c2-0.7,5.8-0.7,8.6-1.6V90.8z M225.1,81.3c-0.1-1.8-2.3-2.9-5-3.4c-1.3-0.3-2.5-0.3-3.7-0.3c-2,0-3.3,0.3-4.4,0.8
	c-2.2,0.9-3.3,2.5-3.6,3.5l-0.1,1.6h3.2c0.1-0.8,0.3-3.3,4.4-3.3c2.3,0,5.3,0.6,5.6,1.8v2.1c0,1-1.3,1.3-1.7,1.4
	c-2,0.4-4,0.1-7.9,1.1c-2.2,0.5-4.3,1.7-4.5,4.7c-0.3,3.5,2.7,5.6,7.5,5.6c2.8,0,5.1-1.5,6.8-2.6c0.1,1.2,1.6,2.6,3.2,2.6
	c1.1,0,1.8-0.1,2.7-0.3v-2.3c-0.2,0.1-0.5,0.1-0.8,0.1c-0.9,0-1.6-0.5-1.6-1.1L225.1,81.3"/>
<path id="path266" class="st1" d="M266.1,79.1c-1.8-5.1-5.8-8.2-12.1-8.1c-3.7,0-7,1.5-8.3,2.6c-3.5,2.8-4.7,7-4.7,10.5
	c0,3.5,1.3,7.7,4.7,10.5c1.3,1,4.5,2.5,8.3,2.6c6.8,0.1,11.4-4.2,12.7-9.9h-3.9c-1.5,4.7-4.2,7-8.6,7c-2.4,0-4.8-0.8-6.4-2.4
	c-1.8-1.7-2.9-4.7-2.9-7.8c-0.1-3,1.1-6,2.9-7.8c1.6-1.6,4-2.4,6.4-2.4c4.1,0,6.7,2.1,8,5.2L266.1,79.1"/>
<path id="path268" class="st0" d="M283.3,87.5c0,2.9-1.6,6.8-6.2,6.8c-4.5,0-6.2-3.8-6.2-6.8c0-2.9,1.7-6.7,6.2-6.7
	C281.6,80.7,283.3,84.5,283.3,87.5z M286.8,87.5c0-8-5.8-9.6-9.7-9.6c-3.9,0-9.7,1.6-9.7,9.6c0,8,5.8,9.6,9.7,9.6
	C281,97.1,286.8,95.4,286.8,87.5"/>
<path id="path270" class="st1" d="M289,78.4v17.9h3.4v-9.5c-0.1-4.8,3-6.3,5.9-6.3c2.4,0,4.3,1.2,4.3,3.4v12.5h3.4V82.4
	c-0.4-2.7-2.3-3.5-3.4-4c-0.5-0.2-2-0.4-3.5-0.5c-1.6,0-3.2,0.2-4.3,0.8c-0.8,0.3-1.7,1.1-2.4,1.9h-0.1v-2.3L289,78.4"/>
<path id="path272" class="st1" d="M307.7,91c0,1.7,0.4,4.9,5.4,5.8c1.2,0.2,2.7,0.2,4.1,0.2c1.4-0.1,2.8-0.3,3.9-0.8
	c2.3-0.8,3.6-2.6,3.8-4.3c0.3-1.7-0.4-3.5-2.3-4.4c-1.5-0.8-3.2-1.1-4.9-1.4c-2.1-0.4-3.8-0.8-5-1.3c-1.2-0.5-1.5-1.5-1-2.5
	c0.5-1,2.1-1.9,4.2-1.9c4.8,0,4.9,1.9,4.9,2.9h3.4c0-2-0.9-5.5-8-5.5c-4.2,0-7.9,1.9-7.9,5.4c0,2.6,1.5,3.9,3.1,4.4
	c1.8,0.7,5.3,1.3,8,1.8c1.7,0.5,2.3,1.4,2.3,2.3c0,0.9-0.6,1.7-1.3,2.2c-0.6,0.3-1.6,0.6-2.7,0.8c-1.1,0-2.2,0-3-0.2
	c-2.4-0.6-3.6-1.7-3.7-3.5H307.7"/>
<path id="path274" class="st1" d="M331.2,73.5h-3.4v4.8h-3V81h3v13.5c0,0.7,0.7,2.3,3.1,2.5c1.3,0.1,2.3,0,3.7-0.2v-2.5
	c-1.9,0.3-3.4,0.2-3.4-0.9V81h3.4v-2.6h-3.4V73.5"/>
<path id="path276" class="st1" d="M335.8,96.3h3.4V87c0-3.1,1.2-4.8,3.6-5.7c0.9-0.3,2-0.4,3.3-0.4v-3h-1.9
	c-1.5,0.1-3.6,1.3-4.9,3.3h-0.1v-2.8h-3.4V96.3"/>
<path id="path278" class="st1" d="M364.3,96.3V78.4h-3.4v9.7c0,2.3-0.5,5-4.2,6.1c-0.9,0.2-1.7,0.3-2.4,0.2c-0.7,0-1.4-0.2-1.9-0.5
	c-1.1-0.6-1.7-1.5-1.6-2.9V78.4h-3.4v14.3c0.4,1.9,1.8,3.3,3.4,4c0.5,0.2,1.9,0.4,3.4,0.4c1.6,0,3.2-0.2,4.3-0.8
	c0.8-0.3,1.7-1.1,2.4-1.9h0.1v1.9L364.3,96.3"/>
<path id="path280" class="st1" d="M380.9,90.1c-0.1,0.7-0.5,1.6-1,2.3c-0.5,1-2.2,1.8-4.1,1.9c-1.9,0.1-4-0.6-5.3-2.8
	c-0.7-1.2-0.9-3-0.8-4.8c0.2-1.8,0.7-3.6,1.7-4.4c1.4-1.4,2.9-1.8,4.2-1.9c1.3,0,2.3,0.3,2.9,0.6c1.4,0.6,1.9,1.5,2.3,3.3h3.4
	c-0.2-2.1-1-4.1-2.7-4.9c-1.5-1.1-3.7-1.6-6-1.6c-2.3,0.1-4.7,0.8-6.5,2.4c-2.2,2-3,4.6-3.1,6.9c-0.1,2.4,0.6,4.6,1.5,6.1
	c1.3,2.4,4.4,3.6,7.5,3.8c3.1,0.1,6.4-1,8.1-3.3c0.6-0.8,1.1-2.1,1.2-3.6L380.9,90.1"/>
<path id="path282" class="st1" d="M391.1,73.5h-3.4v4.8h-3V81h3v13.5c0,0.7,0.7,2.3,3.1,2.5c1.4,0.1,2.3,0,3.7-0.2v-2.5
	c-1.9,0.3-3.4,0.2-3.4-0.9V81h3.4v-2.6h-3.4V73.5"/>
<path id="path284" class="st0" d="M396.4,75h3.4v-3.6h-3.4V75z M396.4,96.3h3.4V78.4h-3.4V96.3z"/>
<path id="path286" class="st0" d="M417.5,87.5c0,2.9-1.6,6.8-6.2,6.8c-4.5,0-6.2-3.8-6.2-6.8c0-2.9,1.7-6.7,6.2-6.7
	C415.9,80.7,417.5,84.5,417.5,87.5z M421,87.5c0-8-5.8-9.6-9.7-9.6c-3.9,0-9.7,1.6-9.7,9.6c0,8,5.8,9.6,9.7,9.6
	C415.3,97.1,421,95.4,421,87.5"/>
<path id="path288" class="st1" d="M423.2,78.4v17.9h3.4v-9.5c-0.1-4.8,3-6.3,5.9-6.3c2.4,0,4.3,1.2,4.3,3.4v12.5h3.4V82.4
	c-0.4-2.7-2.3-3.5-3.4-4c-0.5-0.2-2-0.4-3.5-0.5c-1.6,0-3.2,0.2-4.2,0.8c-0.8,0.3-1.7,1.1-2.4,1.9h-0.1v-2.3L423.2,78.4"/>
<path id="path298" class="st2" d="M91.6,42.6L60.3,11.3c-6.5-6.5-14.3-6.1-17-5.6C18.7,9.8,0,31.1,0,56.9
	c0,28.7,23.2,51.9,51.8,51.9c27.9,0,50.7-22.3,51.7-50c0-0.3-0.1-1.3-0.8-1.7c-0.8-0.5-2.5-0.3-2.5-0.3h-20c0,0-1.9,0-2.5,0.3
	c-0.4,0.2-0.9,0.6-0.9,0.6L52.4,82c-0.4,0.4-1,0.4-1.4,0L26.4,57.4c-0.4-0.4-0.4-1,0-1.4L51,31.4c0.4-0.4,1-0.4,1.4,0L74.9,54
	c0,0,1.2,1.1,2.3,1.3c1,0.3,2.5-0.8,2.5-0.8L91.6,42.6"/>
<path id="path300" class="st3" d="M103,26.5L86.2,9.8C67.5-8.3,45.9,4.2,45.9,4.2s9.2-4.9,20.9,7.5l27.7,27.9l8.2-8.1
	c0,0,1-1.2,1.2-2.4C104.1,28,103,26.5,103,26.5"/>
<path id="path302" class="st0" d="M170.2,51.5H186V24.5h-15.8V51.5z M196.2,24.4v31.8h-25.9v5.9H160v-5.9h-25.9V24.4
	c0-2.5,2-4.6,4.6-4.6H160v-5h10.1v5h21.5C194.2,19.8,196.2,21.9,196.2,24.4z M144.3,51.5H160V24.5h-15.7V51.5z"/>
<path id="path304" class="st4" d="M170.2,51.5H186V24.5h-15.8V51.5z M196.2,24.4v31.8h-25.9v5.9H160v-5.9h-25.9V24.4
	c0-2.5,2-4.6,4.6-4.6H160v-5h10.1v5h21.5C194.2,19.8,196.2,21.9,196.2,24.4z M144.3,51.5H160V24.5h-15.7V51.5z"/>
<path id="path306" class="st1" d="M262.6,49.4h-13.4V38.3h12.6v-4.7h-12.6v-6h13.4V23h-36.9v4.6h13.1v6h-12.3v4.7h12.3v11.1h-13.1
	v4.6h36.9V49.4z M270.5,14.4h-52.7c-2.5,0-4.5,2-4.5,4.6V62H275V18.9C275,16.4,273,14.4,270.5,14.4L270.5,14.4z M223.5,18.9h41.3
	v38.7h-41.3V18.9z M258.1,40H251l2.6,4.7c0,0,0.8,1.8,2.3,2.6c1.3,0.7,3.3,0.5,3.3,0.5h3.2v-4.3l-2.3,0L258.1,40"/>
<path id="path308" class="st4" d="M262.6,49.4h-13.4V38.3h12.6v-4.7h-12.6v-6h13.4V23h-36.9v4.6h13.1v6h-12.3v4.7h12.3v11.1h-13.1
	v4.6h36.9V49.4z M270.5,14.4h-52.7c-2.5,0-4.5,2-4.5,4.6V62H275V18.9C275,16.4,273,14.4,270.5,14.4L270.5,14.4z M223.5,18.9h41.3
	v38.7h-41.3V18.9z M258.1,40H251l2.6,4.7c0,0,0.8,1.8,2.3,2.6c1.3,0.7,3.3,0.5,3.3,0.5h3.2v-4.3l-2.3,0L258.1,40L258.1,40z"/>
<path id="path310" class="st1" d="M355.7,24.8H352v-3.5c0-2.6-2.1-4.7-4.7-4.7l-12.7,0v-2.7H325v2.7h-12.7v4.8H325v3.5h-14.3v4.8
	H325V33h-12.7v4.8H325v3.5h-13.8v4.8H325v3.3h-15v4.9h15v3.4h-9.9c-3.9,0-7.4-1.1-10.5-3.1c1.9-2.8,3.1-6.2,3.1-9.9l0.1-12.9l-5.9,0
	c5.1-3.3,7.7-9.2,7.7-15.7c0-0.1-19.5,0-19.5,0l-0.1,4.9h11.3c-0.9,5.5-5.1,9.8-10.5,10.9v4.8h9.9v7c0,2.1-0.6,4-1.5,5.8
	c-1.5-2.2-2.7-4.7-3.2-7.5l-5.3,0.1c0.4,4.4,2.1,8.4,4.7,11.7c-1.6,1.1-3.4,1.8-5.4,2v6.5c4,0,7.7-1.4,10.7-3.6
	c3.7,2.5,8.1,3.9,12.9,3.9H355l0-4.9l-20.5,0v-3.4H352v-4.9h-17.5v-3.3H352v-4.8h-17.5v-3.5h17.6l0-8.1h3.6V24.8L355.7,24.8z
	 M334.6,29.7h7.4V33h-7.4V29.7z M334.6,21.4h7.4v3.5h-7.4V21.4z"/>
<path id="path312" class="st5" d="M355.7,24.8H352v-3.5c0-2.6-2.1-4.7-4.7-4.7l-12.7,0v-2.7H325v2.7h-12.7v4.8H325v3.5h-14.3v4.8
	H325V33h-12.7v4.8H325v3.5h-13.8v4.8H325v3.3h-15v4.9h15v3.4h-9.9c-3.9,0-7.4-1.1-10.5-3.1c1.9-2.8,3.1-6.2,3.1-9.9l0.1-12.9l-5.9,0
	c5.1-3.3,7.7-9.2,7.7-15.7c0-0.1-19.5,0-19.5,0l-0.1,4.9h11.3c-0.9,5.5-5.1,9.8-10.5,10.9v4.8h9.9v7c0,2.1-0.6,4-1.5,5.8
	c-1.5-2.2-2.7-4.7-3.2-7.5l-5.3,0.1c0.4,4.4,2.1,8.4,4.7,11.7c-1.6,1.1-3.4,1.8-5.4,2v6.5c4,0,7.7-1.4,10.7-3.6
	c3.7,2.5,8.1,3.9,12.9,3.9H355l0-4.9l-20.5,0v-3.4H352v-4.9h-17.5v-3.3H352v-4.8h-17.5v-3.5h17.6l0-8.1h3.6V24.8L355.7,24.8z
	 M334.6,29.7h7.4V33h-7.4V29.7z M334.6,21.4h7.4v3.5h-7.4V21.4z"/>
<path id="path314" class="st6" d="M554.5,15.3h39.4v4.9h-39.4V15.3z"/>
<path id="path316" class="st6" d="M546.3,35.5l0,27.1h-9.6V42.9c-1.8,1.1-3.7,2-5.6,2.9l-4-6.3c8.7-4.2,17-11.3,20.9-19l5.9,5.1
	C551.7,29.1,549.1,32.6,546.3,35.5L546.3,35.5z"/>
<path id="path318" class="st6" d="M579.6,62.6c4.7,0,8.4-3.8,8.4-8.5l0-18.9h7.4v-4.9h-43.3v4.9h25.5V55c0,1.5-1.3,2.8-2.8,2.8
	h-11.3v4.9L579.6,62.6L579.6,62.6z"/>
<path id="path320" class="st6" d="M545.7,16.7c-3.8,7.5-9.8,13.7-17,17.8L525,28c6.2-4.2,11.2-8.9,15.2-16.3L545.7,16.7z"/>
<path id="path322" class="st0" d="M391.4,44.4c0,0-4,3.9-8.3,6.9l0-25l-17.5,0.1v4.8h7.7l0,24.6c-2.7,0.9-4.9,1.4-4.9,1.4l4.9,6.1
	c0,0,4.8-1.2,10-3.8c4.9-2.5,8.2-5.8,8.2-5.8L391.4,44.4L391.4,44.4z M405.9,25l0-5.9l13.7,0v6c0.1,2.2-0.6,7.8,8.9,7.8h6v-4.5
	l-1.6,0c-3.8,0.2-3.5-1.4-3.5-2.5l0-7.1c0-2.5-2-4.5-4.6-4.5h-4.3l-24.4,0l0,11.6c0,0.9,0.3,2.7-3.5,2.5l-1.7-0.1v4.6h5.8
	C406.9,33.4,405.8,27.2,405.9,25L405.9,25z M422.5,52.2c4.5-3.1,8.5-6.8,11.9-11.1l0-6.1h-43.8v5.5h32.8c-3,3-6.4,5.7-10.1,7.9
	c-3.5-1.8-6.8-3.8-9.9-6.3l-11.8,0c3.7,4,8,7.5,12.7,10.5c-4.4,1.5-9.2,2.4-14.1,2.6l0,7.1c8.3,0,16.2-1.8,23.3-5
	c7.3,3.1,15.2,4.8,23.6,4.9V55C431.9,54.6,427.1,53.7,422.5,52.2L422.5,52.2z M368.9,20.6h19.4v-5.2h-19.4V20.6z"/>
<path id="path324" class="st4" d="M391.4,44.4c0,0-4,3.9-8.3,6.9l0-25l-17.5,0.1v4.8h7.7l0,24.6c-2.7,0.9-4.9,1.4-4.9,1.4l4.9,6.1
	c0,0,4.8-1.2,10-3.8c4.9-2.5,8.2-5.8,8.2-5.8L391.4,44.4L391.4,44.4z M405.9,25l0-5.9l13.7,0v6c0.1,2.2-0.6,7.8,8.9,7.8h6v-4.5
	l-1.6,0c-3.8,0.2-3.5-1.4-3.5-2.5l0-7.1c0-2.5-2-4.5-4.6-4.5h-4.3l-24.4,0l0,11.6c0,0.9,0.3,2.7-3.5,2.5l-1.7-0.1v4.6h5.8
	C406.9,33.4,405.8,27.2,405.9,25L405.9,25z M422.5,52.2c4.5-3.1,8.5-6.8,11.9-11.1l0-6.1h-43.8v5.5h32.8c-3,3-6.4,5.7-10.1,7.9
	c-3.5-1.8-6.8-3.8-9.9-6.3l-11.8,0c3.7,4,8,7.5,12.7,10.5c-4.4,1.5-9.2,2.4-14.1,2.6l0,7.1c8.3,0,16.2-1.8,23.3-5
	c7.3,3.1,15.2,4.8,23.6,4.9V55C431.9,54.6,427.1,53.7,422.5,52.2L422.5,52.2z M368.9,20.6h19.4v-5.2h-19.4V20.6z"/>
<path id="path326" class="st0" d="M496.1,52.9c-1.8,1.4-6,2.5-7.7,2.6l0-17.4h25.1l0-19.4c0-2.6-2.1-4.7-4.6-4.7l-29.6,0l0,41.9
	h-1.9v6.6l4.7,0c4.7,0,9.7-0.9,14-2.6L496.1,52.9L496.1,52.9z M507.5,52.8c3.4-3.3,6.2-7.3,8.1-11.7l-7.1,0
	c-1.5,2.8-3.4,5.3-5.8,7.5c-0.2-0.2-1-1.3-1.2-1.5c-1.3-1.7-2.2-3.5-2.9-5.9h-7.3c0.8,2.5,2.3,6.1,3.4,8
	c5.2,8.4,13.1,13.3,21.2,13.4v-6.8C513.1,55.8,510.1,54.6,507.5,52.8L507.5,52.8z M488.3,33.4h16v-4.8h-16V33.4z M488.3,23.8h16
	v-4.9h-16V23.8z"/>
<path id="path328" class="st4" d="M496.1,52.9c-1.8,1.4-6,2.5-7.7,2.6l0-17.4h25.1l0-19.4c0-2.6-2.1-4.7-4.6-4.7l-29.6,0l0,41.9
	h-1.9v6.6l4.7,0c4.7,0,9.7-0.9,14-2.6L496.1,52.9L496.1,52.9z M507.5,52.8c3.4-3.3,6.2-7.3,8.1-11.7l-7.1,0
	c-1.5,2.8-3.4,5.3-5.8,7.5c-0.2-0.2-1-1.3-1.2-1.5c-1.3-1.7-2.2-3.5-2.9-5.9h-7.3c0.8,2.5,2.3,6.1,3.4,8
	c5.2,8.4,13.1,13.3,21.2,13.4v-6.8C513.1,55.8,510.1,54.6,507.5,52.8L507.5,52.8z M488.3,33.4h16v-4.8h-16V33.4z M488.3,23.8h16
	v-4.9h-16V23.8z"/>
<path id="path330" class="st6" d="M465.1,54.5V43.2h11.1v-4.8h-11.1V33h10.2v-4.8l-18.6,0c1.3-1.4,2.6-3.1,3.7-4.7l15.7-0.1v-4.6
	h-12.7c0.8-1.5,1.6-3,2.2-4.6l-7.1-2.5c-2.6,7.2-7.9,13.5-13.6,17l4.7,5.6c0.7-0.5,1.4-0.9,2.1-1.4h5.3v5.5h-7v4.8h7.1l0,13.5
	c-1.6,0.3-3.2,0.4-4.8,0.5l4.7,5.9c7.1-0.7,13.7-3.3,19.1-7.4l0-7.9C472.8,50.6,469.1,52.9,465.1,54.5L465.1,54.5z"/>
</svg>
