<svg id="Layer_1" data-name="Layer 1" xmlns="http://www.w3.org/2000/svg" viewBox="0 0 306.16 52.7"><title>China Minsheng Bank logo - Brandlogos.net</title><path d="M264,395.31c18.47,0,33.49-7.42,33.49-16.54,0-7.63-11-13.71-25.86-15.58l8.67-4L264,351.89l-16.29,7.32,16.17,7.28.12,0c12.22,0,22.15,5.5,22.15,12.25S276.27,391,264,391s-22.16-5.5-22.16-12.26v-.28H230.56v.28c0,9.12,15,16.54,33.49,16.54m0-33.12-6.63-3,6.63-3,6.63,3Z" transform="translate(-230.56 -342.61)" style="fill:#0071bb"/><path d="M264,342.61c-18.46,0-33.49,7.42-33.49,16.54,0,7.63,11,13.72,25.87,15.59l-8.67,4L264,386l16.29-7.31-16.17-7.29-.12,0c-12.22,0-22.16-5.5-22.16-12.25s9.94-12.26,22.16-12.26,22.16,5.5,22.16,12.26v.28h11.33v-.28c0-9.12-15-16.54-33.49-16.54m0,33.12,6.63,3-6.63,3-6.63-3Z" transform="translate(-230.56 -342.61)" style="fill:#00a55d"/><path d="M325.66,345.74h-2.75v28.32h2.75c.58,0,1.32-.33,1.32-1.51v-25.3c0-1.18-.74-1.51-1.32-1.51" transform="translate(-230.56 -342.61)" style="fill:#0071bb"/><rect x="78.66" y="6.82" width="29.33" height="3.73" style="fill:#0071bb"/><path d="M312.91,363.64v-14.2h-4s0,14.42,0,14.9a2.94,2.94,0,0,0,3.07,3h13.51v-3.73" transform="translate(-230.56 -342.61)" style="fill:#0071bb"/><path d="M337.28,363.64v-14.2h4s0,14.42,0,14.9a2.94,2.94,0,0,1-3.07,3H324.72v-3.73" transform="translate(-230.56 -342.61)" style="fill:#0071bb"/><rect x="156.31" y="7" width="3.73" height="23.08" style="fill:#0071bb"/><path d="M420.08,370.09s-1.57,2.14-2.06,2.77a3.57,3.57,0,0,1-3.86,1.18c-2.28-.55-5.65-1.87-7.41-5-2.95-5.32-6.76-12.24-6.76-12.24h4.1s3.61,6.44,5.64,9.62c2.32,3.77,10.35,3.72,10.35,3.72" transform="translate(-230.56 -342.61)" style="fill:#0071bb"/><rect x="156.31" y="4.1" width="26.08" height="3.73" style="fill:#0071bb"/><path d="M389.64,374.44V370.3l9.4-2.66v1.71a2.92,2.92,0,0,1-1.47,2.91" transform="translate(-230.56 -342.61)" style="fill:#0071bb"/><path d="M388.73,364.17v-3.73h29.53v2.16a1.5,1.5,0,0,1-1.59,1.57" transform="translate(-230.56 -342.61)" style="fill:#0071bb"/><path d="M411.92,353.59v-6.87h3.73v7.57a3,3,0,0,1-3.08,3H389.77v-3.73" transform="translate(-230.56 -342.61)" style="fill:#0071bb"/><path d="M390.77,372.66a1.95,1.95,0,1,1-1.95-1.95,1.95,1.95,0,0,1,1.95,1.95" transform="translate(-230.56 -342.61)" style="fill:#0071bb"/><rect x="248.85" y="9.96" width="14.63" height="3.27" style="fill:#0071bb"/><path d="M476.58,349.77v-.54c0-1.08.07-2.72,2.36-2.72H494v3.27" transform="translate(-230.56 -342.61)" style="fill:#0071bb"/><path d="M463.72,356.44v-2.33h11.1v3.27H464.74a.94.94,0,0,1-1-.94" transform="translate(-230.56 -342.61)" style="fill:#0071bb"/><rect x="234.13" y="5.9" width="10.14" height="3.27" style="fill:#0071bb"/><path d="M462.14,362.3v-2h12.68v3.27H463.46a1.18,1.18,0,0,1-1.32-1.24" transform="translate(-230.56 -342.61)" style="fill:#0071bb"/><path d="M499.51,370.91s-1.07,1.33-2.13,2.52a3,3,0,0,1-3.77.35C487,370.41,483,361.3,483,361.3h3.34s5,8.73,13.16,9.62" transform="translate(-230.56 -342.61)" style="fill:#0071bb"/><path d="M461.55,354.1l-2.14-1.94a15.44,15.44,0,0,0,6.32-6.24h3.55a15.36,15.36,0,0,1-4.15,7.85,2.74,2.74,0,0,1-3.58.34" transform="translate(-230.56 -342.61)" style="fill:#0071bb"/><path d="M488.69,369.43v-4.06l8-3v2.34a2.1,2.1,0,0,1-1.09,2" transform="translate(-230.56 -342.61)" style="fill:#0071bb"/><path d="M492.65,358.25V346.5h3.73v12a3,3,0,0,1-3.08,3H480.23v-3.27" transform="translate(-230.56 -342.61)" style="fill:#0071bb"/><rect x="235.46" y="11.93" width="3.73" height="17.5" style="fill:#0071bb"/><path d="M468.8,373.8v-4l5.73-2v1.58a2.92,2.92,0,0,1-1.47,2.91" transform="translate(-230.56 -342.61)" style="fill:#0071bb"/><path d="M469.92,372a2,2,0,1,1-2-1.95,2,2,0,0,1,2,1.95" transform="translate(-230.56 -342.61)" style="fill:#0071bb"/><rect x="246.02" y="6.47" width="3.73" height="22.72" style="fill:#0071bb"/><path d="M479.36,373.74v-4l5.51-1.79v1.71c0,2.35-1.46,2.85-1.46,2.85" transform="translate(-230.56 -342.61)" style="fill:#0071bb"/><path d="M480.48,372a2,2,0,1,1-2-1.95,1.95,1.95,0,0,1,2,1.95" transform="translate(-230.56 -342.61)" style="fill:#0071bb"/><path d="M428.55,353.84v-3.73h26.72v2.16a1.5,1.5,0,0,1-1.59,1.57" transform="translate(-230.56 -342.61)" style="fill:#0071bb"/><path d="M441.4,363.32v-3.73h13.47v2.16a1.5,1.5,0,0,1-1.59,1.57" transform="translate(-230.56 -342.61)" style="fill:#0071bb"/><path d="M440.17,363.32v-3.73H427.12v2.16a1.5,1.5,0,0,0,1.59,1.57" transform="translate(-230.56 -342.61)" style="fill:#0071bb"/><path d="M442.75,371.72H439V345.77h2.45c.58,0,1.32.33,1.32,1.51" transform="translate(-230.56 -342.61)" style="fill:#0071bb"/><path d="M423.72,355l-1.47-1.28a16.48,16.48,0,0,0,6.5-6.43h3.69a15.65,15.65,0,0,1-4.32,8.08c-1.2,1.15-3.33.58-4.4-.36" transform="translate(-230.56 -342.61)" style="fill:#0071bb"/><path d="M436.52,373.53V369.8H423.46V372a1.5,1.5,0,0,0,1.59,1.57" transform="translate(-230.56 -342.61)" style="fill:#0071bb"/><rect x="197.14" y="27.19" width="25.87" height="3.73" style="fill:#0071bb"/><path d="M451.94,369.8h3.6a7.27,7.27,0,0,0,2.72-.38s-.25,1.29-.4,2.26-.48,1.85-2.32,1.85h-3.61" transform="translate(-230.56 -342.61)" style="fill:#0071bb"/><path d="M521.66,351.23V347.5h13v2.16a1.5,1.5,0,0,1-1.59,1.57" transform="translate(-230.56 -342.61)" style="fill:#0071bb"/><path d="M529.79,351.23V347.5H516.74v2.16a1.5,1.5,0,0,0,1.59,1.57" transform="translate(-230.56 -342.61)" style="fill:#0071bb"/><path d="M531.2,358.85v-3.73H514.57v2.16a1.5,1.5,0,0,0,1.59,1.57" transform="translate(-230.56 -342.61)" style="fill:#0071bb"/><path d="M511.26,357.44h-3.77v16.62h2.44c.59,0,1.33-.33,1.33-1.51" transform="translate(-230.56 -342.61)" style="fill:#0071bb"/><path d="M503.57,353.72l-2.26-2a17.31,17.31,0,0,0,8.8-5.82h3.75a17,17,0,0,1-7.08,7.87,2.77,2.77,0,0,1-3.21-.08" transform="translate(-230.56 -342.61)" style="fill:#0071bb"/><path d="M503.29,361.28l-2.19-1.85a17.6,17.6,0,0,0,8.95-5.82h3.81a16.75,16.75,0,0,1-7.36,8,2.82,2.82,0,0,1-3.21-.33" transform="translate(-230.56 -342.61)" style="fill:#0071bb"/><path d="M527.38,370.43V357.3h3.73s0,13.34,0,13.81a2.94,2.94,0,0,1-3.07,3h-3v-3.72" transform="translate(-230.56 -342.61)" style="fill:#0071bb"/><path d="M526.54,370.43h-3.61a7.27,7.27,0,0,1-2.72-.38s.25,1.29.4,2.26.48,1.85,2.32,1.85h3.61" transform="translate(-230.56 -342.61)" style="fill:#0071bb"/><path d="M530.67,355.12H534a7.28,7.28,0,0,0,2.72-.38s-.25,1.29-.4,2.26-.48,1.85-2.32,1.85h-3.33" transform="translate(-230.56 -342.61)" style="fill:#0071bb"/><rect x="116.92" y="4.11" width="3.73" height="27.19" style="fill:#0071bb"/><rect x="131.6" y="10.63" width="3.73" height="14.47" style="fill:#0071bb"/><rect x="118.39" y="4.11" width="29.33" height="3.73" style="fill:#0071bb"/><path d="M354.63,360.59V358.7h9.8v2.89h-8.64c-1.12,0-1.16-.72-1.16-1" transform="translate(-230.56 -342.61)" style="fill:#0071bb"/><path d="M353.84,354.6v-1.89h9.8v2.89H355c-1.12,0-1.16-.72-1.16-1" transform="translate(-230.56 -342.61)" style="fill:#0071bb"/><path d="M372.61,360.59V358.7h-8.89v2.89h7.73c1.12,0,1.17-.72,1.17-1" transform="translate(-230.56 -342.61)" style="fill:#0071bb"/><path d="M373.4,354.6v-1.89H363v2.89h9.23c1.12,0,1.16-.72,1.16-1" transform="translate(-230.56 -342.61)" style="fill:#0071bb"/><rect x="118.39" y="27.56" width="17.59" height="3.73" style="fill:#0071bb"/><path d="M376,370.17V346.72h3.73s0,23.67,0,24.15a2.94,2.94,0,0,1-3.07,3H363.16v-3.73" transform="translate(-230.56 -342.61)" style="fill:#0071bb"/><path d="M352.86,366.95v-1.66h19.66a5.49,5.49,0,0,0,2.06-.29s-.19,1-.3,1.71-.37,1.4-1.75,1.4H354.09c-1,0-1.23-.57-1.23-1.16" transform="translate(-230.56 -342.61)" style="fill:#0071bb"/><path d="M372.54,366.38h-3.28l-1-3.19h2.42a1.26,1.26,0,0,1,1.09.84c.36,1.15.74,2.35.74,2.35" transform="translate(-230.56 -342.61)" style="fill:#0071bb"/><polyline points="102.93 49.13 100 49.13 100 44.38 94.14 44.38 94.14 49.13 91.22 49.13 91.22 37.39 94.14 37.39 94.14 42.11 100 42.11 100 37.39 102.93 37.39" style="fill:#0071bb"/><rect x="106.04" y="37.39" width="2.93" height="11.74" style="fill:#0071bb"/><polyline points="123.96 49.13 121.5 49.13 115.01 41.61 115.01 49.13 112.08 49.13 112.08 37.39 114.77 37.39 121.04 44.57 121.04 37.39 123.96 37.39" style="fill:#0071bb"/><path d="M369.36,391.75h-3.15l-1-2.32H360l-.88,2.32H356L360.76,380h3.39m-1.65,2.8-1.72,4.56h3.61Z" transform="translate(-230.56 -342.61)" style="fill:#0071bb"/><polyline points="156.06 37.39 158.6 37.39 158.6 49.13 155.68 49.13 155.68 41.8 152.51 45.48 152.06 45.48 148.89 41.8 148.89 49.13 145.96 49.13 145.96 37.39 148.51 37.39 152.28 41.75" style="fill:#0071bb"/><rect x="161.73" y="37.39" width="2.93" height="11.74" style="fill:#0071bb"/><polyline points="179.65 49.13 177.19 49.13 170.69 41.61 170.69 49.13 167.77 49.13 167.77 37.39 170.45 37.39 176.72 44.57 176.72 37.39 179.65 37.39" style="fill:#0071bb"/><polyline points="205.63 49.13 202.71 49.13 202.71 44.38 196.85 44.38 196.85 49.13 193.93 49.13 193.93 37.39 196.85 37.39 196.85 42.11 202.71 42.11 202.71 37.39 205.63 37.39" style="fill:#0071bb"/><polyline points="216.95 49.13 208.28 49.13 208.28 37.39 216.83 37.39 216.83 39.55 211.21 39.55 211.21 42.01 216.57 42.01 216.57 44.16 211.21 44.16 211.21 46.98 216.95 46.98" style="fill:#0071bb"/><polyline points="231.51 49.13 229.05 49.13 222.56 41.61 222.56 49.13 219.63 49.13 219.63 37.39 222.31 37.39 228.58 44.57 228.58 37.39 231.51 37.39" style="fill:#0071bb"/><path d="M475.75,383.38a10,10,0,0,0-4.39-1.09c-3.19,0-4.3,2-4.3,3.7,0,2.08,1.64,3.46,4.06,3.46a4.31,4.31,0,0,0,1.95-.41v-1.38h-1.7v-2.15H476v4.8A7.77,7.77,0,0,1,471,391.9c-4.1,0-7-2.5-7-6s2.89-6,7.08-6a11.11,11.11,0,0,1,4.63,1" transform="translate(-230.56 -342.61)" style="fill:#0071bb"/><path d="M489.78,380.07c2.77,0,3.89,1.64,3.89,2.95a2.66,2.66,0,0,1-1.6,2.34,3,3,0,0,1,2.5,3c0,1.34-.72,3.45-4.15,3.45H484.6V380.07m2.93,4.67h1.63c1.07,0,1.5-.66,1.5-1.27s-.43-1.24-1.5-1.24h-1.63Zm0,4.93h1.75c1.62,0,2.19-.43,2.19-1.45,0-.86-.76-1.33-1.79-1.33h-2.15Z" transform="translate(-230.56 -342.61)" style="fill:#0071bb"/><path d="M508.93,391.82h-3.15l-1-2.33h-5.25l-.88,2.33h-3.1l4.73-11.75h3.39m-1.65,2.81-1.72,4.57H504Z" transform="translate(-230.56 -342.61)" style="fill:#0071bb"/><polyline points="291.71 49.21 289.25 49.21 282.76 41.68 282.76 49.21 279.83 49.21 279.83 37.46 282.52 37.46 288.79 44.65 288.79 37.46 291.71 37.46" style="fill:#0071bb"/><polyline points="300.73 42.97 305.91 49.21 302.24 49.21 297.59 43.7 297.59 49.21 294.67 49.21 294.67 37.46 297.59 37.46 297.59 42.78 297.63 42.78 301.33 37.46 304.55 37.46" style="fill:#0071bb"/><path d="M415.82,383c0-.59.68-1,1.73-1a9.35,9.35,0,0,1,3.85.8v-2.29a13.69,13.69,0,0,0-4.1-.66c-2.74,0-4.51,1.34-4.51,3.38,0,4.13,6.11,3.51,6.11,5.44,0,.69-.71,1.09-1.83,1.09a9,9,0,0,1-4.39-1.21v2.57a14.42,14.42,0,0,0,4.62.79c2.63,0,4.64-1.31,4.64-3.56,0-4.1-6.11-3.6-6.11-5.37" transform="translate(-230.56 -342.61)" style="fill:#0071bb"/><path d="M319.45,389.37a15.7,15.7,0,0,1-2.89.3c-2.69,0-4.89-1.23-4.89-3.87s2.09-3.65,4.49-3.65a12.24,12.24,0,0,1,3.29.49V380.2a14.67,14.67,0,0,0-3.31-.39c-4.45,0-7.53,2.18-7.53,6.17,0,3.7,2.84,6,7.6,6a17.8,17.8,0,0,0,3.24-.32" transform="translate(-230.56 -342.61)" style="fill:#0071bb"/></svg>