<?xml version="1.0" encoding="UTF-8" standalone="no"?>
<!-- Created with Inkscape (http://www.inkscape.org/) -->

<svg
   width="176.16669mm"
   height="39.575459mm"
   viewBox="0 0 176.16669 39.575458"
   version="1.1"
   id="svg1"
   xmlns="http://www.w3.org/2000/svg"
   xmlns:svg="http://www.w3.org/2000/svg">
  <defs
     id="defs1">
    <clipPath
       id="clip_5">
      <path
         transform="matrix(1,0,0,-1,0,824.882)"
         d="M 0,824.882 H 612.283 V 0 H 0 Z"
         id="path2" />
    </clipPath>
  </defs>
  <g
     id="layer1"
     transform="translate(-12.414034,-113.00992)">
    <g
       clip-path="url(#clip_5)"
       id="g19"
       transform="matrix(1.2435416,0,0,1.2435416,-55.882887,33.875281)">
      <path
         transform="matrix(1,0,0,-1,74.6353,77.00311)"
         d="m 0,0 c -0.867,0 -1.571,-0.704 -1.571,-1.571 v -4.813 c 0,-0.867 0.704,-1.571 1.571,-1.571 h 7.677 c 0.867,0 1.571,0.704 1.571,1.571 v 4.813 C 9.248,-0.704 8.544,0 7.677,0 Z m 13.097,-11.475 c -0.465,-0.317 -0.81,-0.549 -0.983,-0.617 -0.014,0.014 0.586,0.566 1.159,1.375 0.934,1.173 0.738,2.036 0.776,2.387 -0.03,-0.117 -0.395,-0.978 -0.871,-1.447 -0.507,-0.503 -0.769,-0.418 -0.769,-0.418 0.14,0.557 0.743,1.274 0.743,1.274 -0.907,-0.408 -1.745,-1.656 -2.742,-2.41 C 9.227,-12.393 7.231,-13.505 5.589,-13.945 0.024,-15.436 -5.619,-12.212 -7.11,-6.647 -8.601,-1.082 -5.286,4.566 0.285,6.038 3.224,6.814 5.906,6.156 7.839,5.089 8.536,4.703 9.37,4.174 9.616,3.821 10.374,5.982 13.267,5.605 12.676,7.497 11.343,9.771 10.712,7.343 7.356,9.3 6.852,9.784 7.414,10.131 7.02,10.902 6.123,12.118 4.3,11.56 3.829,11.791 c -0.472,0.231 -0.86,1.474 -0.948,1.572 -1.46,0.027 -2.984,-0.092 -4.449,-0.547 -3.086,-0.96 -4.074,-1.534 -6.539,-3.565 -2.719,-2.24 -4.5,-5.072 -8.057,-5.43 -1.745,0.054 -1.622,1.845 -1.641,1.922 -0.002,0.11 -1.909,-2.117 -1.909,-3.745 0,-1.733 1.277,-3.271 3.185,-3.285 1.811,-0.013 3.371,0.91 3.35,0.932 -0.168,-2.161 -0.166,-4.412 0.382,-6.377 2.305,-8.406 10.986,-13.449 19.48,-11.184 2.545,0.679 6.679,3.968 7.368,7.733 0,0 -0.548,-0.997 -0.954,-1.292"
         fill="#ca191d"
         id="path5" />
      <path
         transform="matrix(1,0,0,-1,101.9603,77.2641)"
         d="m 0,0 h 3.129 v 6.594 c 1.398,0.803 2.659,2.014 3.285,3.843 H 3.655 c 0,0 -1.471,-3.291 -6.427,-3.416 V 5.032 c 0,0 1.211,0.006 2.77,0.369 z M 5.776,4.724 V 2.789 C 6.7,2.906 7.556,3.052 8.365,3.228 8.368,2.604 8.368,2.086 8.368,1.748 8.368,-0.052 10.586,0 10.586,0 h 9.237 v 1.733 h -7.301 c -1.115,0 -1.045,1.051 -1.045,1.051 v 1.297 c 5.858,2.036 7.541,5.299 7.541,5.299 H 15.92 C 14.663,7.988 13.048,7.001 11.477,6.305 v 4.14 H 8.359 c 0,0 0.002,-2.74 0.006,-5.217 C 6.85,4.833 5.776,4.724 5.776,4.724 m 4.302,-6.459 v 1.043 H 6.599 v -1.043 h -9.371 v -1.732 h 9.371 v -3.466 h 3.479 v 3.443 h 9.76 v 1.755 z"
         fill="#ca191d"
         fill-rule="evenodd"
         id="path6" />
      <path
         transform="matrix(1,0,0,-1,182.6656,72.05951)"
         d="m 0,0 v -1.734 h 8.525 v -6.977 c 0,0 0.091,-1.715 -2.277,-1.715 H 2.072 v -1.732 h 6.471 c 0,0 3.071,0 3.071,3.074 v 7.35 h 2.307 V 0 Z M 13.061,4.556 H 0.68099978 V 2.8270002 H 13.061 Z M -5.425,3.19 C -6.777,2.366 -8.353,2.204 -8.353,2.204 V 0.259 c 0,0 2.598,0.065 4.678,1.375 2.116,1.335 3.19,3.598 3.19,3.598 l -3.122,0.003 c 0,0 -0.615,-1.311 -1.818,-2.045 m -2.928,-5.317 v -1.946 c 0,0 0.899,-0.02 2.101,0.232 v -8.317 h 3.115 v 9.543 c 1.145,0.737 2.164,1.843 2.652,3.516 h -2.977 c 0,0 -0.666,-2.568 -4.891,-3.028"
         fill="#ca191d"
         id="path7" />
      <path
         transform="matrix(1,0,0,-1,168.5508,81.40619)"
         d="M 0,0 C 2.16,1.362 2.828,4.142 2.828,4.142 H -0.286 C -0.598,2.335 -1.681,1.493 -1.87,1.362 -3.427,2.831 -4.142,4.475 -4.142,4.475 L -5.851,3.749 c 2.733,-7.03 9.526,-6.56 9.526,-6.56 v 1.894 C 2.234,-0.917 1.017,-0.545 0,0 m -6.942,8.9 h 5.522 v 1.682 h -5.522 v 1.692 c 0,0.184 0.152,0.334 0.336,0.334 h 6.179 c 0.186,0 0.334,-0.15 0.334,-0.334 V 7.28 c 0,-0.182 -0.148,-0.335 -0.334,-0.335 h -6.179 c -0.184,0 -0.336,0.153 -0.336,0.335 z m -0.032,-9.346 v 5.714 h 8.012 c 1.103,0 2.011,0.907 2.011,2.012 v 4.94 c 0,1.108 -0.908,2.014 -2.011,2.014 h -9.065 c -1.108,0 -2.015,-0.906 -2.015,-2.014 V 7.28 l 10e-4,-0.006 V -1.05 c 0,0 -0.115,-1.761 1.881,-1.761 h 4.498 v 1.738 h -2.692 c 0,0 -0.62,-0.026 -0.62,0.627 m -5.565,15.022 h -3.115 c 0,0 -0.557,-2.395 -3.666,-3.283 V 9.462 c 0,0 1.883,0.205 3.71,1.307 h 4.528 v 1.766 h -2.513 c 0.442,0.57 0.81,1.243 1.056,2.041 M -19.264,7.3 h 2.254 V 5.481 h -2.254 V 3.839 h 2.254 v -6.632 c 0,0 1.731,-0.172 3.72,0.792 1.245,0.609 2.208,1.323 2.208,1.323 v 1.926 c 0,0 -0.545,-0.55 -1.615,-1.171 -1.109,-0.643 -1.178,-0.596 -1.178,-0.596 l -0.002,4.358 h 2.795 v 1.642 h -2.795 V 7.3 h 2.795 v 1.642 h -8.182 z"
         fill="#ca191d"
         id="path8" />
      <path
         transform="matrix(1,0,0,-1,141.9538,70.90399)"
         d="M 0,0 C 0.405,0 0.728,-0.328 0.728,-0.726 V -4.081 C 0.728,-4.483 0.405,-4.812 0,-4.812 h -12.498 c -0.401,0 -0.729,0.329 -0.729,0.731 v 0.052 H -1.04 v 1.267 h -12.187 v 0.735 H -1.04 v 1.265 h -12.187 v 0.036 c 0,0.398 0.328,0.726 0.729,0.726 z m -1.168,-8.297 c 0,0 -2.169,-1.654 -4.108,-1.906 0,0 -2.007,0.353 -4.306,1.887 z M 4.567,2.337 V 3.734 H -17.175 V 2.337 h 9.096 C -8.132,2.069 -8.241,1.585 -8.407,1.237 h -6.672 c -0.674,0 -1.228,-0.557 -1.228,-1.233 v -4.366 c 0,-0.917 0.748,-1.668 1.662,-1.668 h 0.74 c -0.309,-0.772 -1.216,-2.275 -3.821,-3.523 l 1.176,-1.578 c 0,0 1.934,0.767 3.672,2.286 0.367,-0.314 1.818,-1.44 4.115,-2.088 0,0 -3.24,-0.556 -7.23,-0.377 v -1.823 c 0,0 7.194,-0.096 10.727,1.139 0,0 3.817,-1.332 9.833,-1.156 v 1.826 c 0,0 -4.394,-0.065 -6.333,0.342 0,0 5.58,1.633 5.58,4.064 h -15.002 c 0.179,0.28 0.34,0.58 0.482,0.888 H 2.193 c 0.914,0 1.668,0.751 1.668,1.668 v 4.347 c 0,0.677 -0.576,1.252 -1.255,1.252 h -7.775 c 0.081,0.163 0.295,0.636 0.386,1.1 z"
         fill="#ca191d"
         id="path9" />
      <path
         transform="matrix(1,0,0,-1,105.6288,87.05902)"
         d="M 0,0 V -1.927 H -2.204 V 0 h -1.467 v -5.128 h 1.467 v 2.147 H 0 V -5.128 H 1.467 V 0 Z"
         fill="#ca191d"
         id="path10" />
      <path
         transform="matrix(1,0,0,-1,115.0883,87.05902)"
         d="m 0,0 v -2.829 c 0,-0.378 -0.018,-0.651 -0.053,-0.81 -0.029,-0.138 -0.119,-0.253 -0.273,-0.352 -0.16,-0.103 -0.408,-0.155 -0.737,-0.155 -0.325,0 -0.58,0.056 -0.762,0.166 -0.177,0.108 -0.284,0.243 -0.329,0.417 -0.02,0.078 -0.043,0.279 -0.043,0.79 V 0 h -1.467 v -2.732 c 0,-0.566 0.042,-0.984 0.126,-1.278 0.061,-0.208 0.189,-0.407 0.378,-0.594 0.188,-0.183 0.443,-0.334 0.76,-0.447 0.314,-0.112 0.777,-0.169 1.375,-0.169 0.495,0 0.905,0.053 1.218,0.155 0.316,0.104 0.573,0.246 0.765,0.424 0.195,0.182 0.331,0.407 0.404,0.67 0.07,0.255 0.105,0.674 0.105,1.279 V 0 Z"
         fill="#ca191d"
         id="path11" />
      <path
         transform="matrix(1,0,0,-1,126.6693,92.0224)"
         d="m 0,0 -2.454,4.902 -0.03,0.061 h -1.464 l -0.031,-0.062 -2.393,-4.902 -0.08,-0.163 h 1.569 l 0.029,0.065 0.482,1.051 h 1.913 L -2.54,1.115 -2.95,1.941 -2.982,2.004 h -0.907 l 0.667,1.449 1.765,-3.555 0.031,-0.062 h 1.508 z"
         fill="#ca191d"
         id="path12" />
      <path
         transform="matrix(1,0,0,-1,150.8126,92.0224)"
         d="m 0,0 -2.454,4.902 -0.03,0.061 h -1.464 l -0.031,-0.062 -2.393,-4.902 -0.08,-0.163 h 1.569 l 0.029,0.065 0.483,1.051 h 1.912 L -2.54,1.115 -2.95,1.941 -2.981,2.004 h -0.908 l 0.667,1.449 1.765,-3.555 0.031,-0.062 h 1.508 z"
         fill="#ca191d"
         id="path13" />
      <path
         transform="matrix(1,0,0,-1,175.1115,92.0224)"
         d="m 0,0 -2.454,4.902 -0.031,0.061 h -1.463 l -0.031,-0.062 -2.393,-4.902 -0.08,-0.163 h 1.568 l 0.031,0.065 0.482,1.051 h 1.912 L -2.54,1.116 -2.95,1.941 -2.982,2.004 h -0.907 l 0.667,1.449 1.765,-3.555 0.031,-0.062 h 1.508 z"
         fill="#ca191d"
         id="path14" />
      <path
         transform="matrix(1,0,0,-1,135.687,92.0014)"
         d="m 0,0 -2.062,2.482 1.875,2.275 0.153,0.185 h -1.74 L -1.807,4.903 -2.943,3.54 -4.075,4.903 -4.109,4.942 H -5.85 L -5.698,4.757 -3.826,2.48 -5.893,0.001 -6.047,-0.185 h 1.787 l 0.032,0.04 1.282,1.555 1.278,-1.555 0.033,-0.04 h 1.79 z"
         fill="#ca191d"
         id="path15" />
      <path
         transform="matrix(1,0,0,-1,0,824.882)"
         d="m 139.361,732.695 h 1.46699 v 5.128 H 139.361 Z"
         fill="#ca191d"
         id="path16" />
      <path
         transform="matrix(1,0,0,-1,182.5734,87.05902)"
         d="M 0,0 V -3.061 L -2.327,-0.043 -2.359,0 h -1.374 v -5.128 h 1.377 v 2.991 l 2.287,-2.948 0.034,-0.043 H 1.377 V 0 Z"
         fill="#ca191d"
         id="path17" />
      <path
         transform="matrix(1,0,0,-1,191.704,89.09613)"
         d="M 0,0 2.482,2.037 H 0.455 L -1.91,-0.004 v 2.041 h -1.467 v -5.128 h 1.467 v 1.54 l 0.872,0.712 1.82,-2.252 h 1.741 z"
         fill="#ca191d"
         id="path18" />
      <path
         transform="matrix(1,0,0,-1,161.3476,88.09729)"
         d="m 0,0 h 0.602 c 0.718,0 0.968,-0.009 1.05,-0.016 0.181,-0.018 0.317,-0.066 0.404,-0.145 0.081,-0.074 0.12,-0.167 0.12,-0.286 0,-0.123 -0.046,-0.22 -0.14,-0.295 C 1.932,-0.825 1.783,-0.877 1.593,-0.895 1.481,-0.906 1.181,-0.911 0.703,-0.911 H 0.35 v -1.038 h 0.542 c 0.553,0 0.914,-0.022 1.073,-0.067 0.147,-0.041 0.26,-0.104 0.334,-0.19 0.071,-0.082 0.107,-0.181 0.107,-0.3 0,-0.142 -0.046,-0.25 -0.136,-0.332 C 2.17,-2.927 2.037,-2.984 1.876,-3.008 1.795,-3.021 1.585,-3.037 1.039,-3.037 H 0 Z m 3.574,-1.737 c -0.159,0.167 -0.369,0.298 -0.626,0.391 0.158,0.091 0.294,0.201 0.403,0.335 0.171,0.212 0.257,0.449 0.257,0.704 0,0.235 -0.071,0.451 -0.211,0.64 C 3.261,0.516 3.091,0.665 2.888,0.774 2.687,0.883 2.459,0.955 2.208,0.989 1.964,1.022 1.592,1.038 1.104,1.038 h -2.571 v -5.127 h 2.205 c 0.804,0.004 1.297,0.015 1.507,0.034 0.344,0.029 0.639,0.112 0.876,0.246 0.242,0.134 0.435,0.318 0.574,0.544 0.14,0.227 0.212,0.467 0.212,0.711 0,0.312 -0.111,0.587 -0.333,0.817"
         fill="#ca191d"
         id="path19" />
    </g>
  </g>
</svg>
