<?xml version="1.0" encoding="UTF-8" standalone="no"?>
<!-- Generator: Adobe Illustrator 16.0.0, SVG Export Plug-In . SVG Version: 6.00 Build 0)  -->

<svg
   version="1.1"
   id="图层_1"
   x="0px"
   y="0px"
   width="212.476"
   height="33.845001"
   viewBox="0 0 212.476 33.845001"
   enable-background="new 0 0 595.276 841.89"
   xml:space="preserve"
   sodipodi:docname="2020102700027_c.svg"
   inkscape:version="1.2 (dc2aedaf03, 2022-05-15)"
   xmlns:inkscape="http://www.inkscape.org/namespaces/inkscape"
   xmlns:sodipodi="http://sodipodi.sourceforge.net/DTD/sodipodi-0.dtd"
   xmlns:xlink="http://www.w3.org/1999/xlink"
   xmlns="http://www.w3.org/2000/svg"
   xmlns:svg="http://www.w3.org/2000/svg"><defs
   id="defs289" /><sodipodi:namedview
   id="namedview287"
   pagecolor="#ffffff"
   bordercolor="#000000"
   borderopacity="0.25"
   inkscape:showpageshadow="2"
   inkscape:pageopacity="0.0"
   inkscape:pagecheckerboard="0"
   inkscape:deskcolor="#d1d1d1"
   showgrid="false"
   inkscape:zoom="4.4851464"
   inkscape:cx="127.86651"
   inkscape:cy="46.152339"
   inkscape:window-width="1680"
   inkscape:window-height="979"
   inkscape:window-x="-8"
   inkscape:window-y="-8"
   inkscape:window-maximized="1"
   inkscape:current-layer="图层_1" />


















<g
   id="g658"
   transform="translate(-191.4,-81.917)"><path
     clip-path="url(#SVGID_8_)"
     d="m 239.103,107.193 c -0.218,-0.155 -0.496,-0.263 -0.822,-0.318 -0.226,-0.044 -0.563,-0.067 -1.004,-0.067 l -2.467,-0.006 h -0.036 l -0.009,6.74 v 0.032 l 0.934,0.003 0.006,-2.727 1.658,0.002 c 0.926,0 1.575,-0.203 1.936,-0.6 0.357,-0.398 0.536,-0.893 0.536,-1.468 0.003,-0.337 -0.063,-0.648 -0.196,-0.929 -0.135,-0.28 -0.314,-0.505 -0.536,-0.662 m -0.227,1.617 c 0,0.375 -0.116,0.67 -0.346,0.878 -0.226,0.205 -0.616,0.31 -1.167,0.31 l -1.655,-0.004 0.004,-2.332 1.636,10e-4 c 0.387,0 0.657,0.02 0.798,0.057 0.22,0.065 0.399,0.193 0.528,0.385 0.132,0.194 0.202,0.43 0.202,0.705"
     id="path170" /><path
     clip-path="url(#SVGID_8_)"
     d="m 246.076,107.15 c -0.488,-0.3 -1.045,-0.45 -1.653,-0.453 h -0.01 c -0.922,0 -1.689,0.321 -2.274,0.957 -0.591,0.629 -0.889,1.516 -0.891,2.633 0,0.588 0.128,1.156 0.377,1.686 0.251,0.531 0.623,0.959 1.115,1.265 0.486,0.308 1.049,0.464 1.671,0.467 h 0.002 c 0.571,0 1.111,-0.143 1.604,-0.419 0.493,-0.276 0.883,-0.691 1.155,-1.231 0.269,-0.537 0.407,-1.153 0.407,-1.839 0,-0.673 -0.128,-1.281 -0.38,-1.813 -0.257,-0.531 -0.637,-0.954 -1.123,-1.253 m -3.24,5.042 c -0.413,-0.46 -0.624,-1.097 -0.624,-1.891 0.002,-0.998 0.223,-1.715 0.654,-2.138 0.434,-0.423 0.957,-0.636 1.555,-0.636 v -0.032 l 0.007,0.032 c 0.418,0 0.805,0.114 1.147,0.331 0.339,0.223 0.599,0.535 0.778,0.937 0.174,0.399 0.264,0.876 0.264,1.416 -0.002,0.853 -0.214,1.516 -0.63,1.98 -0.411,0.458 -0.942,0.689 -1.583,0.689 -0.623,-10e-4 -1.151,-0.231 -1.568,-0.688"
     id="path172" /><path
     clip-path="url(#SVGID_8_)"
     d="m 253.12,110.013 c -0.264,-0.125 -0.752,-0.269 -1.456,-0.435 -0.692,-0.161 -1.127,-0.321 -1.288,-0.469 -0.165,-0.151 -0.244,-0.344 -0.244,-0.575 0,-0.266 0.116,-0.496 0.351,-0.685 0.228,-0.188 0.603,-0.286 1.108,-0.286 h 0.011 c 0.49,0 0.87,0.106 1.118,0.318 0.249,0.208 0.399,0.528 0.441,0.94 l 0.002,0.032 0.9,-0.068 -0.002,-0.03 c -0.014,-0.4 -0.124,-0.761 -0.326,-1.073 -0.199,-0.316 -0.493,-0.56 -0.865,-0.72 -0.377,-0.163 -0.812,-0.246 -1.308,-0.247 -0.441,0 -0.848,0.078 -1.21,0.231 -0.364,0.153 -0.647,0.383 -0.838,0.682 -0.192,0.295 -0.287,0.621 -0.287,0.965 0,0.311 0.078,0.597 0.23,0.849 0.156,0.255 0.397,0.468 0.713,0.639 0.247,0.132 0.672,0.277 1.271,0.425 0.597,0.146 0.986,0.257 1.162,0.328 0.267,0.103 0.462,0.232 0.571,0.383 0.116,0.152 0.174,0.33 0.174,0.535 0,0.198 -0.06,0.386 -0.182,0.555 -0.119,0.168 -0.303,0.305 -0.552,0.402 -0.244,0.096 -0.533,0.145 -0.859,0.145 -0.364,-0.001 -0.699,-0.066 -0.989,-0.196 -0.288,-0.13 -0.504,-0.3 -0.639,-0.51 -0.141,-0.212 -0.23,-0.482 -0.267,-0.815 l -0.005,-0.029 -0.884,0.075 v 0.032 c 0.014,0.45 0.135,0.864 0.363,1.22 0.229,0.361 0.551,0.634 0.957,0.815 0.403,0.178 0.91,0.269 1.506,0.272 h 0.008 c 0.464,0 0.89,-0.09 1.267,-0.267 0.378,-0.176 0.675,-0.428 0.874,-0.747 0.203,-0.32 0.305,-0.665 0.305,-1.026 0.004,-0.364 -0.09,-0.692 -0.276,-0.969 -0.181,-0.28 -0.471,-0.514 -0.855,-0.696"
     id="path174" /><polygon
     clip-path="url(#SVGID_8_)"
     points="257.682,107.696 257.672,113.611 258.608,113.613 258.616,107.696 260.784,107.701 260.784,106.843 255.56,106.835 255.527,106.835 255.527,107.691 "
     id="polygon176" /><path
     clip-path="url(#SVGID_8_)"
     d="m 264.358,106.851 -0.986,-0.003 -2.544,6.767 0.989,0.002 0.724,-2.029 2.685,0.003 0.763,2.033 1.061,0.001 -2.686,-6.754 z m 0.58,3.952 -2.124,-0.002 0.708,-1.922 c 0.134,-0.383 0.245,-0.764 0.326,-1.147 0.099,0.337 0.238,0.75 0.424,1.256 z"
     id="path178" /><polygon
     clip-path="url(#SVGID_8_)"
     points="268.263,113.597 268.263,113.628 272.39,113.633 272.425,113.633 272.425,112.777 269.202,112.773 269.21,106.858 268.274,106.856 "
     id="polygon180" /><path
     clip-path="url(#SVGID_8_)"
     d="m 281.002,110.054 c -0.264,-0.123 -0.754,-0.268 -1.457,-0.432 -0.693,-0.162 -1.127,-0.32 -1.286,-0.47 -0.163,-0.15 -0.245,-0.343 -0.245,-0.571 0,-0.273 0.113,-0.498 0.35,-0.689 0.229,-0.191 0.609,-0.285 1.12,-0.285 0.491,0 0.864,0.107 1.119,0.315 0.247,0.213 0.397,0.529 0.437,0.944 l 0.005,0.032 0.898,-0.07 v -0.029 c -0.014,-0.397 -0.125,-0.76 -0.327,-1.073 -0.2,-0.314 -0.493,-0.558 -0.868,-0.723 -0.37,-0.16 -0.811,-0.241 -1.301,-0.241 -0.446,0 -0.85,0.073 -1.214,0.228 -0.365,0.153 -0.644,0.384 -0.838,0.682 -0.187,0.296 -0.289,0.621 -0.289,0.965 0,0.313 0.084,0.598 0.234,0.852 0.155,0.249 0.395,0.463 0.712,0.634 0.244,0.133 0.659,0.273 1.271,0.425 0.6,0.148 0.99,0.258 1.162,0.329 0.268,0.104 0.463,0.234 0.573,0.387 0.113,0.149 0.171,0.329 0.171,0.532 0,0.202 -0.061,0.385 -0.179,0.556 -0.121,0.168 -0.302,0.304 -0.551,0.401 -0.246,0.097 -0.532,0.147 -0.861,0.147 -0.367,0 -0.698,-0.065 -0.988,-0.197 -0.294,-0.13 -0.508,-0.3 -0.646,-0.511 -0.138,-0.209 -0.226,-0.483 -0.264,-0.814 l -0.003,-0.03 -0.882,0.078 v 0.029 c 0.011,0.451 0.133,0.866 0.363,1.222 0.229,0.36 0.552,0.633 0.954,0.81 0.405,0.182 0.908,0.272 1.505,0.272 h 0.006 c 0.469,0 0.896,-0.089 1.271,-0.263 0.377,-0.177 0.673,-0.428 0.873,-0.748 0.205,-0.32 0.307,-0.664 0.309,-1.025 0,-0.362 -0.095,-0.69 -0.278,-0.969 -0.181,-0.28 -0.471,-0.515 -0.856,-0.7"
     id="path182" /><path
     clip-path="url(#SVGID_8_)"
     d="m 286.683,106.886 -0.977,-0.004 -2.55,6.768 0.995,0.004 0.721,-2.033 2.687,0.006 0.752,2.01 0.007,0.023 1.064,0.001 -2.685,-6.754 z m 0.585,3.953 -2.122,-0.002 0.705,-1.924 c 0.136,-0.374 0.245,-0.756 0.33,-1.144 0.102,0.348 0.243,0.768 0.421,1.254 z"
     id="path184" /><path
     clip-path="url(#SVGID_8_)"
     d="m 292.627,111.79 c -0.121,0.333 -0.226,0.662 -0.321,0.977 -0.083,-0.3 -0.189,-0.629 -0.308,-0.977 l -1.696,-4.874 -0.006,-0.024 h -1.012 l 2.54,6.752 0.009,0.023 0.939,0.002 2.582,-6.725 0.016,-0.044 h -0.958 z"
     id="path186" /><rect
     x="296.849"
     y="106.903"
     clip-path="url(#SVGID_8_)"
     width="0.935"
     height="6.7709999"
     id="rect188" /><polygon
     clip-path="url(#SVGID_8_)"
     points="299.88,106.907 299.87,113.678 300.769,113.679 300.78,108.492 304.156,113.686 305.097,113.686 305.107,106.916 304.206,106.916 304.201,112.096 300.822,106.908 "
     id="polygon190" /><path
     clip-path="url(#SVGID_8_)"
     d="m 310.194,111.064 1.924,0.004 v 1.205 c -0.182,0.161 -0.447,0.313 -0.795,0.454 -0.349,0.144 -0.714,0.218 -1.082,0.218 -0.425,0 -0.83,-0.099 -1.206,-0.291 -0.377,-0.191 -0.665,-0.489 -0.863,-0.885 -0.197,-0.395 -0.296,-0.895 -0.295,-1.486 0,-0.478 0.086,-0.931 0.249,-1.339 0.097,-0.236 0.234,-0.456 0.408,-0.652 0.174,-0.198 0.402,-0.357 0.686,-0.477 0.285,-0.119 0.622,-0.18 1.016,-0.18 0.322,0 0.621,0.056 0.887,0.173 0.263,0.114 0.468,0.268 0.61,0.46 0.141,0.188 0.263,0.456 0.36,0.795 l 0.009,0.032 0.847,-0.238 -0.008,-0.028 c -0.111,-0.454 -0.281,-0.827 -0.497,-1.11 -0.219,-0.284 -0.527,-0.511 -0.915,-0.668 -0.385,-0.159 -0.818,-0.239 -1.301,-0.241 -0.652,0 -1.239,0.137 -1.744,0.414 -0.5,0.275 -0.894,0.703 -1.166,1.272 -0.268,0.57 -0.402,1.189 -0.402,1.839 0,0.663 0.135,1.27 0.402,1.803 0.267,0.539 0.67,0.959 1.201,1.243 0.526,0.284 1.119,0.429 1.768,0.429 h 0.004 c 0.479,0 0.95,-0.089 1.406,-0.264 0.454,-0.176 0.898,-0.441 1.327,-0.789 l 0.014,-0.008 10e-4,-2.537 h -2.844 v 0.852 z"
     id="path192" /><path
     clip-path="url(#SVGID_8_)"
     d="m 318.74,110.118 c -0.262,-0.125 -0.752,-0.27 -1.456,-0.433 -0.694,-0.162 -1.128,-0.321 -1.288,-0.475 -0.162,-0.146 -0.245,-0.338 -0.245,-0.569 0.002,-0.271 0.115,-0.498 0.349,-0.689 0.231,-0.187 0.61,-0.285 1.125,-0.285 0.493,0.002 0.867,0.11 1.112,0.32 0.251,0.21 0.399,0.527 0.442,0.94 l 0.005,0.032 0.897,-0.069 v -0.029 c -0.015,-0.397 -0.123,-0.756 -0.326,-1.074 -0.202,-0.317 -0.495,-0.557 -0.867,-0.722 -0.378,-0.163 -0.812,-0.243 -1.307,-0.243 -0.443,0 -0.851,0.075 -1.21,0.229 -0.364,0.153 -0.647,0.384 -0.837,0.678 -0.189,0.302 -0.289,0.627 -0.289,0.969 0,0.313 0.08,0.597 0.233,0.852 0.156,0.253 0.398,0.468 0.71,0.637 0.243,0.133 0.661,0.273 1.273,0.423 0.597,0.148 0.985,0.257 1.161,0.328 0.265,0.104 0.459,0.234 0.572,0.383 0.114,0.152 0.171,0.333 0.171,0.536 0,0.2 -0.06,0.386 -0.179,0.555 -0.123,0.17 -0.308,0.305 -0.549,0.402 -0.251,0.097 -0.535,0.145 -0.865,0.145 -0.363,0 -0.693,-0.066 -0.99,-0.196 -0.287,-0.127 -0.504,-0.301 -0.64,-0.511 -0.137,-0.209 -0.226,-0.481 -0.263,-0.81 l -0.004,-0.034 -0.889,0.077 v 0.032 c 0.015,0.452 0.139,0.862 0.365,1.22 0.23,0.36 0.554,0.635 0.957,0.813 0.402,0.179 0.907,0.27 1.506,0.27 h 0.009 c 0.465,0 0.894,-0.088 1.268,-0.264 0.378,-0.175 0.671,-0.431 0.876,-0.746 0.202,-0.321 0.303,-0.665 0.303,-1.025 0,-0.366 -0.092,-0.693 -0.276,-0.97 -0.179,-0.283 -0.47,-0.515 -0.854,-0.697"
     id="path194" /><path
     clip-path="url(#SVGID_8_)"
     d="m 328.881,110.119 c 0.28,-0.155 0.493,-0.352 0.637,-0.591 0.152,-0.256 0.23,-0.535 0.231,-0.824 0,-0.314 -0.088,-0.618 -0.261,-0.903 -0.172,-0.284 -0.414,-0.5 -0.722,-0.639 -0.308,-0.139 -0.719,-0.207 -1.22,-0.211 l -2.491,-0.003 -0.007,6.739 v 0.032 l 2.53,0.005 h 0.008 c 0.414,0 0.769,-0.037 1.055,-0.113 0.289,-0.074 0.539,-0.188 0.73,-0.336 0.193,-0.15 0.359,-0.363 0.492,-0.635 0.129,-0.272 0.197,-0.572 0.197,-0.89 0,-0.395 -0.109,-0.742 -0.323,-1.032 -0.202,-0.277 -0.486,-0.475 -0.856,-0.599 m -2.896,0.505 h 1.479 c 0.413,0.004 0.729,0.04 0.946,0.113 0.213,0.073 0.382,0.2 0.502,0.377 0.121,0.18 0.181,0.392 0.181,0.634 0,0.209 -0.042,0.396 -0.13,0.552 -0.079,0.159 -0.185,0.28 -0.317,0.358 -0.13,0.084 -0.289,0.144 -0.485,0.182 -0.107,0.018 -0.294,0.028 -0.557,0.028 l -1.619,-0.002 z m 2.679,-1.249 c -0.105,0.148 -0.268,0.256 -0.48,0.322 -0.164,0.049 -0.435,0.074 -0.815,0.074 l -1.376,-0.002 0.001,-1.962 1.271,0.001 c 0.466,0 0.798,0.031 0.985,0.093 0.183,0.059 0.326,0.171 0.426,0.333 0.104,0.166 0.149,0.359 0.149,0.574 0,0.227 -0.054,0.417 -0.161,0.567"
     id="path196" /><path
     clip-path="url(#SVGID_8_)"
     d="m 334.622,106.963 -0.983,-0.002 -2.549,6.768 h 0.994 l 0.726,-2.03 2.688,0.006 0.758,2.032 h 1.063 l -2.688,-6.754 z m 0.584,3.953 -2.123,-10e-4 0.706,-1.925 c 0.133,-0.374 0.244,-0.759 0.326,-1.144 0.105,0.344 0.245,0.768 0.425,1.254 z"
     id="path198" /><polygon
     clip-path="url(#SVGID_8_)"
     points="338.57,106.97 338.557,113.741 339.46,113.741 339.469,108.556 342.843,113.748 343.787,113.75 343.797,106.978 342.896,106.975 342.888,112.157 339.514,106.97 "
     id="polygon200" /><polygon
     clip-path="url(#SVGID_8_)"
     points="346.723,110.256 346.723,106.984 345.79,106.981 345.781,113.753 346.718,113.753 346.72,111.408 347.752,110.381 350.055,113.746 350.064,113.759 351.291,113.761 348.412,109.738 351.193,106.99 349.926,106.987 "
     id="polygon202" /><path
     clip-path="url(#SVGID_8_)"
     d="m 360.584,107.334 c -0.489,-0.3 -1.046,-0.45 -1.66,-0.452 -0.925,0 -1.693,0.322 -2.282,0.954 -0.585,0.632 -0.885,1.518 -0.886,2.633 -0.003,0.589 0.123,1.158 0.375,1.688 0.249,0.531 0.625,0.959 1.112,1.265 0.491,0.307 1.05,0.467 1.673,0.467 h 0.008 c 0.566,0 1.106,-0.142 1.599,-0.421 0.497,-0.273 0.883,-0.689 1.154,-1.229 0.267,-0.538 0.409,-1.154 0.409,-1.839 0,-0.672 -0.127,-1.283 -0.383,-1.812 -0.257,-0.533 -0.632,-0.954 -1.119,-1.254 m -3.241,5.04 c -0.414,-0.454 -0.623,-1.09 -0.623,-1.889 10e-4,-0.996 0.222,-1.717 0.654,-2.138 0.432,-0.421 0.957,-0.634 1.557,-0.634 v -0.033 l 0.001,0.033 c 0.426,0 0.811,0.114 1.147,0.332 0.339,0.222 0.601,0.531 0.778,0.933 0.175,0.402 0.267,0.88 0.263,1.419 0,0.852 -0.21,1.517 -0.624,1.977 -0.417,0.458 -0.944,0.691 -1.581,0.691 -0.628,-0.001 -1.158,-0.233 -1.572,-0.691"
     id="path204" /><polygon
     clip-path="url(#SVGID_8_)"
     points="364.753,113.782 364.756,110.736 367.792,110.74 367.827,110.74 367.83,109.886 364.756,109.88 364.759,107.868 368.272,107.873 368.308,107.873 368.311,107.017 363.859,107.01 363.825,107.01 363.814,113.782 "
     id="polygon206" /><path
     clip-path="url(#SVGID_8_)"
     d="m 378.127,111.413 c -0.116,0.556 -0.342,0.98 -0.671,1.259 -0.326,0.278 -0.734,0.421 -1.213,0.421 -0.388,-0.003 -0.754,-0.106 -1.092,-0.314 -0.334,-0.208 -0.583,-0.521 -0.738,-0.939 -0.161,-0.421 -0.244,-0.921 -0.24,-1.484 0,-0.438 0.07,-0.867 0.205,-1.28 0.135,-0.405 0.373,-0.736 0.704,-0.974 0.325,-0.242 0.742,-0.363 1.237,-0.363 0.429,0.002 0.784,0.112 1.068,0.328 0.28,0.217 0.498,0.573 0.646,1.051 l 0.012,0.029 0.921,-0.218 -0.011,-0.033 c -0.176,-0.625 -0.492,-1.114 -0.941,-1.458 -0.45,-0.344 -1.013,-0.521 -1.675,-0.523 -0.581,0 -1.119,0.136 -1.605,0.408 -0.486,0.269 -0.862,0.673 -1.128,1.196 -0.26,0.523 -0.396,1.144 -0.396,1.841 0,0.643 0.114,1.253 0.348,1.811 0.228,0.562 0.573,0.999 1.02,1.295 0.446,0.297 1.029,0.449 1.741,0.449 h 10e-4 c 0.686,0 1.276,-0.194 1.751,-0.579 0.477,-0.386 0.811,-0.952 0.993,-1.682 l 0.004,-0.033 -0.932,-0.243 z"
     id="path208" /><polygon
     clip-path="url(#SVGID_8_)"
     points="381.674,107.039 380.737,107.037 380.729,113.777 380.729,113.808 381.665,113.811 381.669,110.649 385.001,110.654 384.997,113.816 385.935,113.816 385.945,107.044 385.01,107.043 385.003,109.798 381.669,109.792 "
     id="polygon210" /><polygon
     clip-path="url(#SVGID_8_)"
     points="389.041,107.084 389.041,107.049 388.107,107.049 388.096,113.82 389.031,113.82 "
     id="polygon212" /><polygon
     clip-path="url(#SVGID_8_)"
     points="391.135,107.054 391.122,113.827 392.026,113.827 392.032,108.64 395.408,113.833 396.35,113.835 396.361,107.061 395.461,107.061 395.455,112.243 392.079,107.056 "
     id="polygon214" /><path
     clip-path="url(#SVGID_8_)"
     d="m 401.187,107.091 -0.004,-0.02 h -0.984 l -2.551,6.763 0.996,10e-4 0.72,-2.029 2.69,0.004 0.75,2.011 0.008,0.022 1.064,10e-4 z m 0.573,3.933 -2.121,-0.004 0.704,-1.923 c 0.135,-0.367 0.244,-0.751 0.332,-1.145 0.097,0.336 0.235,0.747 0.419,1.254 z"
     id="path216" /></g><g
   id="g218"
   transform="translate(-191.4,-81.917)">
	<defs
   id="defs139">
		<rect
   id="SVGID_7_"
   x="43.839001"
   y="81.916"
   width="507.59698"
   height="137.423" />
	</defs>
	<clipPath
   id="SVGID_8_">
		<use
   xlink:href="#SVGID_7_"
   overflow="visible"
   id="use141" />
	</clipPath>
	<polygon
   points="265.896,93.208 269.598,93.208 269.598,91.499 265.896,91.499 265.896,89.664 269.598,89.664 269.598,87.956 260.019,87.956 260.019,89.664 263.419,89.664 263.419,91.499 260.019,91.499 260.019,93.208 263.419,93.208 263.419,96.453 260.019,96.453 260.019,98 269.598,98 269.598,96.453 265.896,96.453 "
   id="polygon130" /><path
   d="M 81.764,2.637 H 65.069 V 19.329 H 81.764 Z M 79.277,17.619 H 67.699 V 4.494 h 11.578 z"
   id="path132"
   transform="translate(191.4,81.917)" /><rect
   x="75.571007"
   y="12.212997"
   width="2.323"
   height="1.398"
   id="rect134"
   transform="translate(191.4,81.917)" /><path
   d="M 96.226,4.799 H 92.668 V 1.865 h -2.32 V 4.799 H 86.49 v 14.068 h 9.736 z m -5.878,12.52 h -1.382 v -4.785 h 1.382 z m 0,-6.491 H 88.966 V 6.504 h 1.382 z m 3.711,6.491 h -1.391 v -4.785 h 1.391 z m 0,-6.491 H 92.668 V 6.504 h 1.391 z"
   id="path136"
   transform="translate(191.4,81.917)" /><path
   clip-path="url(#SVGID_8_)"
   d="m 295.35,98.216 v -3.691 c 0,-0.731 -0.481,-1.544 -1.096,-1.837 l -0.067,-0.033 0.033,-0.066 c 1.415,-2.874 1.178,-6.653 1.138,-7.195 h -6.498 v 16.93 h 2.318 V 87.035 h 2.056 c 0,0 -0.047,3.452 -1.288,5.049 v 1.591 c 0.782,0.031 1.247,0.543 1.247,1.031 v 3.351 c 0,0.519 -0.485,0.862 -1.247,0.884 v 1.841 c 0.022,0.001 0.048,0.001 0.077,0.001 0.432,0 1.528,-0.063 2.339,-0.651 0.589,-0.418 0.988,-1.191 0.988,-1.916"
   id="path144" />
	<path
   clip-path="url(#SVGID_8_)"
   d="m 244.81,83.763 h -2.779 v 4.039 h -7.252 l -0.014,9.749 h 7.266 v 4.773 h 2.779 v -4.773 h 6.96 v -9.748 h -6.96 z m -2.779,12.239 h -4.633 v -6.657 h 4.633 z m 7.256,0 h -4.477 v -6.657 h 4.477 z"
   id="path146" />
	<polygon
   clip-path="url(#SVGID_8_)"
   points="303.726,99.235 302.685,99.235 302.685,89.907 300.148,89.907 300.148,99.235 300.148,101.067 302.685,101.067 308.344,101.067 308.344,99.235 306.258,99.235 306.258,93.575 308.344,93.575 308.344,91.737 306.258,91.737 306.258,87.155 308.344,87.155 308.344,85.314 300.148,85.314 300.148,87.155 303.726,87.155 "
   id="polygon148" />
	<path
   clip-path="url(#SVGID_8_)"
   d="m 316.085,88.219 h 0.749 v -1.831 h -5.213 l 0.596,-2.606 h -2.535 l -0.892,4.437 h 4.762 v 5.357 c 0,1.226 -0.293,2.14 -0.745,3.056 -0.59,-0.916 -0.887,-1.981 -0.887,-3.056 -0.151,-2.753 0,-3.062 0,-4.432 h -2.685 v 4.432 c 0,1.83 0.75,3.525 1.936,4.895 -0.922,0.851 -1.993,1.356 -2.319,1.536 v 2.283 c 0.608,-0.176 2.265,-0.962 3.811,-2.29 1.341,1.067 2.828,1.833 4.172,2.29 V 100 c -0.896,-0.461 -1.789,-0.916 -2.531,-1.529 1.039,-1.37 1.782,-3.065 1.782,-4.895 v -5.357 z"
   id="path150" />
	<path
   clip-path="url(#SVGID_8_)"
   d="m 388.612,102.026 v -7.412 l -0.408,0.209 c -0.011,0.002 -1.146,0.58 -2.149,0.735 v -1.6 c 2.088,-0.794 3.374,-2.069 4.042,-4 h 2.202 c -0.409,1.082 -0.812,2.098 -1.438,2.915 l -0.068,0.092 v 9.061 z m 7.21,-0.002 v -1.776 h 1.706 c 0.37,0 1.32,-0.139 1.32,-1.396 v -7.32 h -5.417 v -1.601 h 10.444 v 1.601 h -2.571 v 7.867 c 0,1.793 -0.788,2.627 -2.47,2.627 z m -9.767,-13.582 c 1.923,-0.655 3.331,-2.062 3.887,-3.885 h 2.383 c -1.104,3.259 -3.266,5.228 -6.27,5.713 z m 8.036,-3.048 h 9.507 v 1.583 h -9.507 z"
   id="path152" />
	<polygon
   clip-path="url(#SVGID_8_)"
   points="364.631,87.925 370.815,87.925 370.815,86.209 367.277,86.209 367.726,84.557 365.51,84.557 "
   id="polygon154" />
	<polygon
   clip-path="url(#SVGID_8_)"
   points="370.325,89.342 365.021,89.342 365.021,90.891 366.652,90.891 366.652,93.623 364.611,93.623 364.611,95.168 366.652,95.168 366.652,102.037 370.48,102.037 370.48,100.452 368.763,100.452 368.763,95.168 370.566,95.168 370.566,93.623 368.763,93.623 368.763,90.891 370.325,90.891 "
   id="polygon156" />
	<path
   clip-path="url(#SVGID_8_)"
   d="m 374.255,93.625 h 5.166 c 0.058,0 0.108,-0.001 0.163,-0.004 v 0.003 h 2.289 V 91.013 88.91 85.396 h -9.819 v 16.635 h 4.414 v -1.551 h -2.213 z m 0,-6.67 h 5.341 v 1.824 h -5.341 z m 0,3.369 h 5.329 v 0.999 0.825 l -5.329,0.002 z"
   id="path158" />
	<path
   clip-path="url(#SVGID_8_)"
   d="m 379.943,98.74 -0.099,-0.1 c 0,0 1.946,-2.146 2.593,-3.784 h -2.173 c -0.355,0.733 -1.418,2.046 -1.466,2.099 l -0.128,0.149 -0.217,-0.361 c -0.313,-0.516 -0.576,-1.15 -0.788,-1.887 h -2.467 c 0.377,1.27 1.339,2.947 1.342,2.95 1.085,1.707 2.648,3.701 5.896,4.2 v -1.833 c -0.114,-0.055 -0.293,-0.108 -0.403,-0.159 -0.864,-0.387 -1.486,-0.67 -2.09,-1.274"
   id="path160" />
	<path
   clip-path="url(#SVGID_8_)"
   d="m 330.098,101.723 v -6.979 l -0.296,0.152 c -0.227,0.114 -0.465,0.229 -0.704,0.338 v -1.736 c 1.144,-0.521 2.133,-1.173 2.944,-1.941 l 0.384,-0.366 h -3.328 v -1.749 h 2.366 V 87.27 h -1.569 v -1.673 h 1.569 v -1.084 h 2.24 v 1.084 h 1.645 v 1.673 h -1.645 v 2.172 h 0.479 l 0.04,-0.05 c 0.375,-0.426 0.724,-0.994 1.126,-1.803 v 0.08 l 0.391,-0.713 c 0.24,-0.444 0.463,-0.934 0.656,-1.46 h 2.144 c -0.649,1.567 -1.235,2.752 -1.793,3.618 l -0.208,0.328 h 1.644 v 1.749 h -3.048 l -0.04,0.043 c -0.434,0.438 -0.871,0.856 -1.323,1.263 l -0.408,0.367 h 4.2 v 8.859 z m 2.187,-1.373 3.092,0.01 v -2.223 h -3.092 z m 0,-3.591 h 3.092 v -2.326 h -3.092 z m -10.219,5.247 V 90.352 l -0.303,0.153 c -0.317,0.163 -0.657,0.311 -1.007,0.442 v -2.042 c 1.461,-1.112 2.559,-2.929 2.913,-4.832 h 2.058 c -0.099,0.693 -0.813,3.016 -1.342,3.852 l -0.024,0.035 -0.006,14.046 z m 3.811,-10.711 h -0.721 V 89.6 h 2.891 v 9.758 l 1.099,0.012 v 2.053 l -3.269,0.003 z m 0.899,-2.718 -1.055,-3.185 h 1.939 l 1.095,3.185 z"
   id="path162" />
	<polygon
   clip-path="url(#SVGID_8_)"
   points="354.095,84.476 354.095,85.249 349.44,85.249 349.44,84.476 347.443,84.476 347.443,85.249 343.234,85.249 343.234,86.862 347.443,86.862 347.443,87.713 349.44,87.713 349.44,86.862 354.095,86.862 354.095,87.713 356.162,87.713 356.162,86.862 360.377,86.862 360.377,85.249 356.162,85.249 356.162,84.476 "
   id="polygon164" />
	<path
   clip-path="url(#SVGID_8_)"
   d="m 352.874,87.495 h -2.144 v 0.75 h -7.497 v 0.312 1.065 0.156 h 5.187 c -1.086,0.529 -2.249,0.964 -3.507,1.283 v 1.064 0.077 h 5.123 c -1.889,0.758 -4.177,1.096 -6.159,1.517 v 1.212 h 16.018 l -0.929,-2.729 h -1.937 l 0.42,1.174 h -5.92 c 2.387,-0.76 3.803,-1.661 6.49,-3.062 h -3.222 c -0.611,0.302 -0.617,0.395 -1.233,0.648 h -4.196 c 0.636,-0.341 0.945,-0.574 1.982,-1.184 h 9.026 v -1.533 h -7.503 v -0.75 z"
   id="path166" />
	<path
   clip-path="url(#SVGID_8_)"
   d="m 344.183,101.93 h 15.244 v -6.261 h -15.244 z m 8.891,-4.994 h 4.034 v 1.299 h -4.034 z m 0,2.599 h 4.034 v 1.172 h -4.034 z m -6.659,-2.599 h 4.036 v 1.299 h -4.036 z m 0,2.599 h 4.036 v 1.172 h -4.036 z"
   id="path168" />
	
	
	
	
	
	
	
	
	
	
	
	
	
	
	
	
	
	
	
	
	
	
	
	
</g><path
   fill="#006647"
   d="M 2.752,18.613 H 9.147 L 8.833,20.311 H 2.437 Z m 8.201,0 h 6.414 l -0.315,1.671 H 10.639 Z M 20.867,0 19.928,5.063 H 11.691 L 9.796,15.215 H 1.593 L 0,23.699 H 8.182 L 6.291,33.845 H 23.514 L 25.43,23.709 h 6.154 L 32.215,20.322 24.237,20.311 22.329,30.47 H 8.721 l 0.307,-1.674 h 11.811 l 1.913,-10.183 9.778,0.008 0.659,-3.374 -11.57,-0.01 -1.917,10.155 H 9.666 l 0.313,-1.7 8.238,0.026 1.593,-8.481 -8.221,-0.022 0.316,-1.7 h 11.811 l 0.973,-5.068 9.757,-0.009 0.64,-3.396 -11.553,0.021 -0.97,5.076 H 12.544 l 0.315,-1.682 h 8.229 L 22.026,3.369 H 35.408 L 36.058,0 Z"
   id="path128" />







</svg>
