<?xml version="1.0" encoding="UTF-8" standalone="no"?>
<!-- Created with Inkscape (http://www.inkscape.org/) -->

<svg
   xmlns:svg="http://www.w3.org/2000/svg"
   xmlns="http://www.w3.org/2000/svg"
   version="1.1"
   width="956.69287"
   height="233.50394"
   id="svg2">
  <defs
     id="defs4" />
  <g
     transform="translate(-367.86761,121.26395)"
     id="layer1">
    <g
       transform="translate(35.433041,-35.392808)"
       id="g3631">
      <path
         d="m 708.99381,56.435695 c -29.1101,-5.637392 -50.6823,-20.958526 -50.8791,-21.204057 -0.1375,-0.250442 -2.5629,-1.350421 -2.2098,-2.980747 1.1299,-4.699464 7.9505,-14.304637 8.5842,-15.635415 0.7708,-1.360241 0.2907,-3.712428 -1.3357,-4.051261 -10.5185,-2.101746 -10.8576,-2.479863 -10.8576,-2.479863 -2.9955,-0.1620512 -3.2017,1.247297 -3.2017,1.247297 l 0.2082,7.498517 c -1.925,6.585142 -3.1133,6.09899 -3.1133,6.09899 0,0 -8.5838,-6.373985 -9.1632,-6.865047 -0.5697,-0.520525 -7.1695,-1.095068 -7.1695,-1.095068 0,0 0.6187,-1.124532 1.2669,-1.674521 9.7427,-8.3284122 12.3308,-15.8907672 12.4239,-16.1166562 0,-0.250441 -0.1572,-4.503038 -0.1572,-4.503038 l -3.3097,-4.336078 8.6379,-2.3914718 c 0,0 5.0482,-1.50265 6.035,-0.417403 1.7336,1.934785 2.2836,10.5872968 2.2836,10.5872968 2.9609,6.364164 12.4777,8.873491 13.1063,8.981525 0.6042,0.274994 16.7896,4.9253522 16.7896,4.9253522 4.0314,-3.1673502 3.4029,-7.4248582 3.4029,-7.4248582 0.9381,-2.440578 -7.857,-6.103901 -11.2454,-6.835583 -12.1685,-2.872713 -14.2553,-4.949905 -17.5454,-7.424858 -3.3542,-2.4700418 -0.7661,-4.9057098 -0.7661,-4.9057098 0,0 6.3394,-1.866035 8.1957,-2.263795 2.6175,-0.545079 17.3592,-1.242387 17.3592,-1.242387 4.0758,0.338832 4.0758,-1.193281 4.0758,-1.193281 l -1.1687,-9.81633 c 0.4321,-1.276761 -0.6631,-3.712429 -1.6747,-3.496361 -18.0515,5.303469 -29.4492,6.226666 -29.4492,6.226666 -1.4877,0.250442 -1.63,-7.675299 -1.1291,-11.279694 0.6038,-4.149474 -3.2905,-6.776656 -5.8829,-6.914154 -2.5488,-0.07857 -6.6883,-2.730304 -6.6883,-2.730304 -10.1453,13.847948 3.2902,16.995656 4.2232,17.393416 3.6091,1.379884 2.9463,1.846393 4.051,3.236099 1.4045,1.718717 -2.7153,3.059316 -5.2787,3.771356 -23.8951,6.477108 -32.4592,6.693175 -35.0276,6.555678 -5.3966,-0.250442 -3.6091,4.876246 -3.6091,4.876246 0,0 1.8071,2.2932598 2.9118,4.6896418 1.8318,4.213312 10.867,1.090158 12.625,0.623649 9.9882,-2.759769 9.9591,-1.856215 9.9591,-1.856215 1.5415,1.856215 -1.3357,7.051651 -1.3357,7.051651 -6.5606,8.524837 -15.6602,13.5876862 -17.4327,14.2211562 -1.8857,0.770967 -2.583,0.191514 -2.583,0.191514 -0.9526,2.366919 1.7922,6.118633 2.8725,6.261041 0.7956,0.07857 9.1389,-0.201336 9.1389,-0.201336 l 1.1589,-0.378117 c 0.9821,0 0.6431,1.335688 0.6431,1.335688 0.5846,6.187382 4.3213,7.704763 6.4773,8.264574 6.9927,1.73836 8.9126,5.259274 8.9126,5.259274 -15.7482,21.312092 -44.4804,19.215257 -44.4804,19.215257 0.8399,0.86918 3.3149,2.263796 8.1516,3.201724 15.9202,3.201725 30.5441,-5.283827 31.7474,-6.26104 1.0752,-1.016499 9.767,-7.572177 10.9848,-8.86858 2.0821,-2.283439 3.2756,-1.050873 3.2756,-1.050873 0,0 14.0196,11.810041 18.341,15.419347 24.5778,20.703175 39.5796,2.037908 39.5796,2.037908"
         id="path3330"
         style="fill:#003b77;fill-opacity:1;fill-rule:nonzero;stroke:none" />
      <path
         d="m 793.29431,-14.326341 c 2.7303,-4.606162 -1.375,-10.032397 -3.8252,-11.5596 -8.8049,-5.411503 -9.89,-8.323501 -9.89,-8.323501 -4.9892,2.425846 -5.063,8.107434 -3.6731,11.422102 4.5865,11.014521 16.4945,10.071682 17.3883,8.460999"
         id="path3334"
         style="fill:#003b77;fill-opacity:1;fill-rule:nonzero;stroke:none" />
      <path
         d="m 840.82441,1.7706718 c -0.071,0.79552 -0.2711,36.1961812 -0.2711,36.1961812 -0.3575,1.006677 -7.4052,1.296404 -7.4052,1.296404 -0.7024,3.020031 7.2284,12.222533 7.2284,12.222533 0,0 -0.098,0.658023 -2.6765,0.692398 -11.9473,0.265173 -14.447,-1.483008 -14.447,-1.483008 0.7857,-0.112944 4.6505,-4.586519 4.6505,-4.586519 l 0,-11.073448 c 6.4082,-2.249064 8.5052,-5.480252 8.5052,-5.480252 1.1342,-6.030242 -1.0508,-6.437824 -1.0508,-6.437824 l -5.2741,0.982124 c -2.4407,0.176783 -2.0624,-1.232565 -2.0624,-1.232565 l -0.1179,-4.483396 c 0,-0.505794 8.9766,-4.449022 8.9766,-4.449022 0,0 0.8938,-2.381651 0.3536,-5.8681912 -0.5354,-3.466898 -9.1927,-0.47633 -9.1927,-0.47633 l -0.506,-5.93203 c 0,0 4.2919,-0.726771 5.6131,-1.379884 1.2669,-0.692397 6.5311,-1.537024 6.5311,-1.537024 1.2618,0.186604 1.2618,2.190137 1.144,3.029853 m -21.6999,48.2321112 c -8.0585,-0.540168 -10.1355,-2.077192 -10.1355,-2.077192 0.1022,-0.545079 0.7119,-12.472976 0.7119,-12.472976 9.6986,-0.471419 9.6986,0.422314 9.6986,0.422314 0.825,7.248075 -0.275,14.127854 -0.275,14.127854 m -11.1078,-36.81492 c 0,0 -2.3524,-6.1088112 -0.5944,-7.0663822 0,0 2.7598,0.731683 10.2534,-1.998622 0,0 1.1738,2.406204 0.8596,5.244542 -0.1729,1.2276552 -1.1589,1.0459622 -1.1589,1.0459622 0,0 -5.441,1.934784 -7.0863,3.304847 -0.8395,0.844627 -1.7776,2.072282 -2.2734,-0.530347 m 9.1338,13.243943 c 0,0 -7.2336,1.095068 -7.6999,0.736593 0,0 -0.1532,-7.076204 -0.1532,-7.768601 0,0 2.2589,1.095068 3.7615,1.212923 1.4438,0.06875 2.7696,0.422313 4.9158,-0.117855 0,0 0.977,-0.02946 0.977,2.29326 0,3.16735 0.3457,3.339222 -1.802,3.64368 m 30.5146,24.15043 c 0,0 -1.0953,-0.687487 -0.4176,-2.263796 0.6926,-1.551756 1.4928,-5.445877 1.2131,-6.148096 0,0 -2.0774,-24.435246 -0.2986,-36.0488632 0.7366,-4.782944 1.5373,-12.797076 2.2444,-13.30778 0,0 -1.3703,-4.3311668 -11.9674,-3.7713568 -3.5946,0.206246 -7.9599,3.2213668 -10.5331,1.3700628 -1.7285,-1.2080118 -1.3899,-2.3276338 -0.079,-3.7517128 1.3062,-1.41917 15.9838,-17.02021 19.107,-17.604574 0,0 3.472,-4.581608 -4.1053,-8.878401 -4.4785,-2.543701 -5.5392,-4.100368 -11.1962,-0.456688 -3.3243,2.175405 -12.7822,10.538191 -18.8811,11.63817 -3.1283,0.535258 -3.6587,-2.195047 -3.9926,-2.514237 l -1.1982,-0.879001 c 0,0 -5.4064,4.944994 -4.8073,11.942628 0.2161,3.555289 9.5757,0.432134 12.2813,-1.718717 1.9595,-1.640147 14.0986,-8.991346 11.6334,-2.401294 l -7.5427,8.411893 -5.9909,1.674521 c 0,0 -3.2167,1.198192 -0.4962,4.100368 0,0 4.6749,3.0249418 4.1839,4.3262558 0,0 -0.6777,1.856215 -6.9287,4.836961 -1.4194,0.618738 -3.0104,1.998623 -3.3444,2.474953 -0.082,0.112944 -0.082,0.15714 -0.1139,0.181693 l -4.6945,-2.730305 -3.5062,-0.137497 c 0,0 1.2767,8.505194 1.1392,9.600262 -0.09,0.987035 -0.4026,33.6426592 2.1214,38.5925642 l -12.0263,-1.011588 c 0,0 -17.8452,-18.621072 -4.4981,-44.3379892 1.6794,-3.24592 3.958,-7.243165 -2.2,-9.8949 -2.7106,-1.247297 -8.7456,-1.9004098 -9.8114,-3.1133328 0,0 -4.1151,-1.478097 -3.624,3.8597468 l 2.8533,6.305237 c 0,0 -0.4569,3.673144 -2.1804,12.3649412 -0.3614,1.934784 -2.2836,13.111356 7.4591,28.712396 0,0 1.7336,2.980747 1.1196,3.997245 -0.4565,1.090158 -0.9821,0.456688 -0.9821,0.456688 l -12.4337,-1.257119 c 0,0 -2.8089,-0.770967 -3.3785,2.13612 -0.4271,2.042818 -2.627,9.18286 1.2276,9.993112 0,0 23.4335,-5.077581 58.623,4.306614 6.3104,1.679432 15.503,3.299937 33.3973,2.808875 0,0 22.8541,-3.201725 22.8541,-16.691198 0,0 -4.8419,-3.825374 -30.2298,4.827139"
         id="path3338"
         style="fill:#003b77;fill-opacity:1;fill-rule:nonzero;stroke:none" />
      <path
         d="m 1111.2424,-13.481766 c 9.3643,-0.289726 14.0247,-4.98919 14.0247,-4.98919 0,0 2.735,-2.38165 5.6472,-5.421324 3.5357,-3.555289 7.3216,-7.734227 7.3216,-7.734227 l 2.6423,-1.600862 0,-1.232566 c -4.3363,-4.561966 -11.7957,-6.477108 -11.7957,-6.477108 -0.2161,-0.338833 -1.296,0.284816 -1.296,0.284816 -2.4062,4.689642 -9.4237,11.490851 -11.285,13.14082 -7.1008,6.275772 -9.2367,12.104678 -9.2367,12.104678 0,0 1.4535,1.959338 3.9776,1.924963"
         id="path3342"
         style="fill:#003b77;fill-opacity:1;fill-rule:nonzero;stroke:none" />
      <path
         d="m 1141.7126,-10.820158 c 0.8643,-1.787466 0.1414,-2.951283 0.1414,-2.951283 -8.0094,-3.236099 -14.2164,-3.118244 -14.2164,-3.118244 l -2.7649,0.874091 c -20.0153,29.674877 -42.3244,39.432279 -42.3244,39.432279 -0.7905,0.987035 1.547,6.639159 1.547,6.639159 0,0 1.3109,0.63347 3.2603,0.692397 7.3659,0.383029 23.3553,-12.364941 23.3553,-12.364941 2.3225,-0.137498 3.3046,3.461987 3.3046,3.461987 -0.4616,1.158906 -0.9283,27.278495 -0.9821,29.100335 -0.1807,6.035152 2.3374,10.066771 4.6258,10.066771 2.2589,0 6.4722,-3.840105 6.4722,-3.840105 l -0.3575,-21.150041 c -0.3104,-1.232565 -2.7645,-24.46962 -2.7645,-24.46962 15.6158,-13.3323342 19.8684,-20.6589792 20.7032,-22.372785"
         id="path3346"
         style="fill:#003b77;fill-opacity:1;fill-rule:nonzero;stroke:none" />
      <path
         d="m 1146.481,-24.142671 c 2.141,6.516393 5.3329,9.81633 5.3329,9.81633 13.6567,6.0744368 31.2072,-6.280683 32.0907,-7.017276 0.8549,-0.692398 1.4245,-4.689643 1.4245,-4.689643 -0.5696,-0.854448 -4.6258,-4.031619 -4.6258,-4.031619 l -2.1068,-0.658023 c -14.9723,2.401293 -32.2974,2.082103 -32.2974,2.082103 l -0.6576,2.681199 c 0,0 0.1375,-0.07366 0.8395,1.816929"
         id="path3350"
         style="fill:#003b77;fill-opacity:1;fill-rule:nonzero;stroke:none" />
      <path
         d="m 1196.3238,-12.01835 c 0,0 -23.2418,5.2641848 -29.4787,5.6030178 -3.5057,0.216067 -23.3105,2.425846 -23.3105,2.425846 0,0 -8.4462,0.923197 -9.0112,8.878402 -0.1728,2.101745 -0.2003,7.0270972 0.462,7.8668132 0,0 7.5915,-2.224511 17.241,-4.3017032 3.3243,-0.761146 8.1073,-1.021409 8.8639,-0.94775 0,0 1.4779,36.9524172 0.825,38.3863182 0,0 0.4518,5.450788 -5.8044,3.299937 0,0 -6.4722,-3.918675 -12.5763,-3.776267 0,0 -0.216,0.933018 1.1935,2.244153 1.3895,1.316046 10.4494,8.691798 14.6089,13.941251 1.3997,1.861125 16.3917,7.640925 17.1577,-8.799831 0.1611,-2.867803 -3.0446,-31.295383 -3.2606,-33.063206 -0.2436,-1.753092 -0.8494,-12.8854672 0.039,-13.3912612 0,0 24.3661,-3.285205 29.0756,-8.696709 1.6107,-1.812018 -0.1453,-6.830672 -6.0106,-9.6690108"
         id="path3354"
         style="fill:#003b77;fill-opacity:1;fill-rule:nonzero;stroke:none" />
      <path
         d="m 978.31661,37.966853 c 0,0 -11.5007,1.856214 -11.5007,1.517382 -0.106,-0.358476 1.3161,-2.037908 3.0643,-3.373596 4.9353,-3.859748 7.1695,-6.732461 7.1695,-6.732461 3.1821,-6.830672 -0.6628,-6.590052 -0.6628,-6.590052 -3.2854,-1.114711 -5.4409,1.856214 -6.0746,2.803964 -5.4948,7.856992 -5.8091,7.12531 -5.8091,7.12531 -0.889,-4.517771 -0.216,-14.029642 -0.216,-14.029642 l 8.2742,-4.552145 c 2.5193,-0.849537 3.0544,-5.8976542 1.3651,-6.9485272 -1.3651,-0.839716 -9.3251,0.186603 -9.3251,0.186603 0,0 -1.0166,0.545079 -1.4586,0.05893 -0.4714,-0.441956 0.1454,-3.771356 0.1454,-3.771356 l 7.0221,-3.255742 c 1.8661,-1.478096 1.1589,-5.661945 1.1589,-5.661945 -1.3207,-1.856214 -5.1903,-2.440578 -5.1903,-2.440578 l -10.0915,0.181693 c 0,0 -2.6714,0.692397 -2.3571,-0.79061 0.5696,-3.3588638 7.7882,-9.8408828 7.7882,-9.8408828 3.7765,0.07366 8.8344,3.87939 9.7871,4.74857 3.9627,3.4767188 7.9403,6.2855938 7.9403,6.2855938 0.7511,-17.5996628 -7.4492,-20.7768338 -8.893,-21.5281588 -1.5419,-0.800431 -1.4684,-2.303081 -1.4684,-2.303081 4.4246,-3.024942 4.0613,-3.923585 4.0613,-3.923585 -4.5571,-11.888612 -12.7531,-9.055184 -12.7531,-9.055184 -0.071,0.432135 -4.9106,9.919453 -6.5704,12.978769 -12.7087,22.9571488 -33.8684,39.5452238 -34.605,40.3112808 -0.7366,0.8053422 -8.1909,4.3508092 -8.1909,4.3508092 3.8055,9.148486 12.6199,7.734227 14.3634,7.316824 5.5737,-1.217833 19.4657,-19.0482952 19.4657,-19.0482952 0.447,1.011588 2.7303,1.011588 3.8303,1.237476 3.9186,0.815163 7.0465,1.119622 7.0465,1.119622 l 0.385,5.023564 -8.2302,2.3570982 c 0,0 -3.7372,1.03123 -3.9631,5.170883 -0.33,8.5543 6.0452,6.108811 6.0452,6.108811 l 6.9141,-2.106656 c 0.4616,0.329012 1.0902,10.945773 1.0902,10.945773 l -7.6802,-4.571788 c -4.2872,2.327634 -4.4883,6.506572 -4.4883,6.506572 1.925,5.706141 5.6225,5.853459 7.2972,6.658801 1.3549,0.579453 1.1931,2.106656 0.1768,2.61245 -17.9922,9.452944 -19.1856,8.912775 -19.1856,8.912775 l -1.2717,3.093691 c -0.059,8.186004 11.0241,5.455699 11.7069,5.06776 18.0711,-9.619905 30.7256,-12.851093 30.7256,-12.851093 2.2934,0.06875 4.1398,-4.399915 4.1398,-4.399915 l 1.6795,-2.651735 c 1.3353,-2.632093 -2.6569,-2.253975 -2.6569,-2.253975"
         id="path3358"
         style="fill:#003b77;fill-opacity:1;fill-rule:nonzero;stroke:none" />
      <path
         d="m 1000.8909,40.392699 c -3.54539,1.674522 -5.70099,0.407582 -5.70099,0.407582 0,0 -3.3443,-6.339611 -2.1461,-16.745215 0,0 0.7417,-0.353565 1.4339,-0.250442 0,0 7.00719,1.168728 15.99399,6.339611 0,0 0.8447,5.627571 -9.5808,10.248464 m -7.10539,-46.7049082 0.9232,-1.320957 13.25859,-0.491062 c 0,0 0.933,0.608917 0.2907,2.244154 -0.6285,1.674521 -2.4109,8.195825 -7.7438,8.00431 0,0 -7.09609,1.320957 -7.27279,-0.987034 l 0.5452,-7.449411 z m 2.4062,-17.5947518 c 0.2357,-1.836572 11.54459,-1.97898 12.83629,-1.615594 1.3259,0.324101 1.5714,4.1151 1.5714,4.1151 -1.1491,5.607928 -2.0919,5.008832 -2.0919,5.008832 -6.7275,1.58122 -12.76759,0.304459 -12.76759,0.304459 -0.658,-1.640148 0.4518,-7.812797 0.4518,-7.812797 m 34.12369,53.088714 c -6.0055,-2.013354 -12.8411,-6.472197 -12.8411,-6.472197 0.2789,-0.250442 21.7882,-13.0131432 21.7882,-13.0131432 -5.2787,-6.369075 -11.9277,-9.939096 -11.9277,-9.939096 -11.6924,18.7978542 -28.32439,20.1188112 -31.02059,20.2219342 -2.7106,0.112944 -3.1966,-0.02436 -3.2359,-2.357097 -0.3457,-8.1074342 1.1295,-8.2547532 1.1295,-8.2547532 0,0 1.8857,-0.108033 3.3883,1.3455102 2.83319,2.573165 9.19269,0.579453 9.19269,0.579453 l 4.2325,-3.7026072 c 4.4495,-4.98919 4.9551,-6.737371 5.2744,-11.093091 0.7956,-10.4399788 2.7645,-14.4323128 3.9234,-17.6193048 3.0741,-8.318591 2.7354,-10.282839 2.7354,-10.282839 -0.5892,-9.099379 -9.5658,-6.226666 -10.6069,-5.789621 -6.9633,2.646824 -15.69939,3.712429 -18.47409,4.468664 -7.1204,2.229422 -6.187,3.64368 -6.187,3.64368 l -0.4714,7.04674 c 0,0 -1.1837,37.472943 -1.2277,40.168873 -1.1149,28.987391 1.0902,43.218368 1.0902,43.218368 -0.1297,2.465132 3.1867,3.781178 3.1867,3.781178 10.46479,-0.579453 18.97979,-19.79471 19.66219,-22.0094 3.457,-11.495762 4.1642,-10.223911 4.1642,-10.223911 8.2204,3.314669 18.0809,15.026498 18.6556,15.497917 0.6577,0.515615 1.5958,0.225889 2.416,-1.276761 0.7563,-1.620505 6.1332,-8.31368 6.1332,-8.31368 -0.1925,-2.239243 -7.4492,-8.411892 -10.9801,-9.624816"
         id="path3362"
         style="fill:#003b77;fill-opacity:1;fill-rule:nonzero;stroke:none" />
      <path
         d="m 556.21461,84.696362 8.3532,0 c 3.3145,0 5.4017,0.741503 5.4017,3.128065 0,2.337455 -2.2935,3.285205 -5.1711,3.285205 l -8.5838,0 0,-6.41327 z m -7.017,24.047308 14.8006,0 c 7.1153,0 9.0453,-0.97722 11.0489,-2.61736 1.7972,-1.48792 3.0053,-3.70261 3.0053,-5.99587 0,-2.877623 -1.1589,-5.71105 -5.4214,-6.987812 1.4929,-0.658023 4.3116,-1.777644 4.3116,-5.990956 0,-3.034764 -2.1364,-7.434679 -10.7398,-7.434679 l -17.0052,0 0,29.026677 z m 7.017,-12.792167 9.3255,0 c 2.5928,0 5.1954,1.016498 5.1954,3.545468 0,2.926729 -2.0184,4.272239 -5.5784,4.272239 l -8.9425,0"
         id="path3366"
         style="fill:#003b77;fill-opacity:1;fill-rule:nonzero;stroke:none" />
      <path
         d="m 590.25981,102.81645 12.8414,0 2.2687,5.92712 7.8963,0 -12.3111,-29.026675 -8.3481,0 -12.4482,29.026675 7.6849,0 2.4161,-5.92712 z m 6.4231,-16.538967 0.098,0 4.2577,11.476119 -8.8097,0"
         id="path3370"
         style="fill:#003b77;fill-opacity:1;fill-rule:nonzero;stroke:none" />
      <path
         d="m 639.21391,79.716946 6.7963,0 0,29.026674 -7.2924,0 -14.1572,-20.698263 -0.1139,0 0,20.698263 -6.8356,0 0,-29.026674 7.7093,0 13.7745,20.19738 0.1179,0"
         id="path3374"
         style="fill:#003b77;fill-opacity:1;fill-rule:nonzero;stroke:none" />
      <path
         d="m 660.85481,108.74357 -7.2775,0 0,-29.026671 7.2775,0 0,11.829683 13.3326,-11.829683 9.4185,0 -14.2604,11.854237 15.056,17.172434 -9.3943,0 -10.7346,-12.733234 -3.4178,2.916909"
         id="path3378"
         style="fill:#003b77;fill-opacity:1;fill-rule:nonzero;stroke:none" />
      <path
         d="m 713.59021,94.237649 c 0,13.602421 12.1292,15.208191 16.7943,15.208191 4.5916,0 16.7158,-1.60577 16.7158,-15.208191 0,-13.607328 -12.1242,-15.281849 -16.7158,-15.281849 -4.6651,0 -16.7943,1.674521 -16.7943,15.281849 m 7.3416,0 c 0,-8.15654 5.4751,-10.120788 9.4527,-10.120788 3.8892,0 9.404,1.964248 9.404,10.120788 0,8.107431 -5.5148,10.101141 -9.404,10.101141 -3.9776,0 -9.4527,-1.99371 -9.4527,-10.101141"
         id="path3382"
         style="fill:#003b77;fill-opacity:1;fill-rule:nonzero;stroke:none" />
      <path
         d="m 760.22141,108.74357 -7.3023,0 0,-29.026671 24.7645,0 0,5.131598 -17.4622,0 0,6.545856 15.3459,0 0,5.126688 -15.3459,0"
         id="path3386"
         style="fill:#003b77;fill-opacity:1;fill-rule:nonzero;stroke:none" />
      <path
         d="m 829.77551,89.25337 c -0.5893,-1.748181 -1.7333,-5.053028 -7.7046,-5.053028 -3.5357,0 -8.7213,1.910231 -8.7213,10.14043 0,5.21999 2.4699,9.889988 8.7213,9.889988 4.002,0 6.801,-1.88568 7.7046,-5.445876 l 7.2677,0 c -1.5027,6.290506 -6.4082,10.660956 -15.1098,10.660956 -9.296,0 -16.0137,-5.16597 -16.0137,-15.168906 0,-10.160073 7.1007,-15.321134 16.0381,-15.321134 10.489,0 14.6729,6.000777 15.0854,10.29757"
         id="path3390"
         style="fill:#003b77;fill-opacity:1;fill-rule:nonzero;stroke:none" />
      <path
         d="m 841.03061,94.237649 c 0,13.602421 12.1882,15.208191 16.77,15.208191 4.6258,0 16.7648,-1.60577 16.7648,-15.208191 0,-13.607328 -12.139,-15.281849 -16.7648,-15.281849 -4.5818,0 -16.77,1.674521 -16.77,15.281849 m 7.3168,0 c 0,-8.15654 5.5294,-10.120788 9.4532,-10.120788 3.9383,0 9.3989,1.964248 9.3989,10.120788 0,8.107431 -5.4606,10.101141 -9.3989,10.101141 -3.9238,0 -9.4532,-1.99371 -9.4532,-10.101141"
         id="path3394"
         style="fill:#003b77;fill-opacity:1;fill-rule:nonzero;stroke:none" />
      <path
         d="m 913.87471,108.74357 -6.7668,0 0,-24.292834 -0.1493,0 -6.5115,24.292834 -7.0909,0 -6.4082,-24.292834 -0.039,0 0,24.292834 -6.8309,0 0,-29.026671 10.656,0 6.266,22.878581 0.1061,0 6.2121,-22.878581 10.5527,0"
         id="path3398"
         style="fill:#003b77;fill-opacity:1;fill-rule:nonzero;stroke:none" />
      <path
         d="m 954.36771,108.74357 -6.7963,0 0,-24.292834 -0.082,0 -6.5853,24.292834 -7.076,0 -6.3791,-24.292834 -0.055,0 0,24.292834 -6.8552,0 0,-29.026671 10.6265,0 6.3544,22.878581 0.1139,0 6.1139,-22.878581 10.6215,0"
         id="path3402"
         style="fill:#003b77;fill-opacity:1;fill-rule:nonzero;stroke:none" />
      <path
         d="m 989.32621,98.59828 c 0,7.60164 -5.5097,10.84756 -14.4124,10.84756 -3.2265,0 -7.9898,-0.62365 -11.0541,-3.49636 -1.8856,-1.71872 -2.5928,-4.07582 -2.7401,-6.943618 l 0,-19.288916 7.4001,0 0,18.842049 c 0,4.036525 2.8879,5.779795 6.2566,5.779795 5.0528,0 7.14,-1.99371 7.14,-5.480247 l 0,-19.141597 7.4099,0"
         id="path3406"
         style="fill:#003b77;fill-opacity:1;fill-rule:nonzero;stroke:none" />
      <path
         d="m 1017.646,79.716946 6.8061,0 0,29.026674 -7.2874,0 -14.1229,-20.698263 -0.1964,0 0,20.698263 -6.76689,0 0,-29.026674 7.75879,0 13.7399,20.19738 0.071,0"
         id="path3410"
         style="fill:#003b77;fill-opacity:1;fill-rule:nonzero;stroke:none" />
      <path
         d="m 1030.9145,108.74362 7.3215,0 0,-29.026674 -7.3215,0 0,29.026674 z"
         id="path3412"
         style="fill:#003b77;fill-opacity:1;fill-rule:nonzero;stroke:none" />
      <path
         d="m 1067.2774,89.25337 c -0.5743,-1.748181 -1.7187,-5.053028 -7.7293,-5.053028 -3.4865,0 -8.6623,1.910231 -8.6623,10.14043 0,5.21999 2.4651,9.889988 8.6623,9.889988 4.0809,0 6.8159,-1.88568 7.7293,-5.445876 l 7.2724,0 c -1.4582,6.290506 -6.4128,10.660956 -15.1392,10.660956 -9.2567,0 -15.9399,-5.16597 -15.9399,-15.168906 0,-10.160073 7.0026,-15.321134 15.989,-15.321134 10.4694,0 14.6879,6.000777 15.0901,10.29757"
         id="path3416"
         style="fill:#003b77;fill-opacity:1;fill-rule:nonzero;stroke:none" />
      <path
         d="m 1087.4699,102.81645 12.8462,0 2.2588,5.92712 7.9211,0 -12.2668,-29.026675 -8.412,0 -12.4483,29.026675 7.7046,0 2.3964,-5.92712 z m 6.4773,-16.538967 0.043,0 4.3461,11.476119 -8.9326,0"
         id="path3420"
         style="fill:#003b77;fill-opacity:1;fill-rule:nonzero;stroke:none" />
      <path
         d="m 1125.66,108.74357 -7.2972,0 0,-23.895073 -10.6022,0 0,-5.131598 28.4376,0 0,5.131598 -10.5382,0"
         id="path3424"
         style="fill:#003b77;fill-opacity:1;fill-rule:nonzero;stroke:none" />
      <path
         d="m 1139.8909,108.74362 7.3267,0 0,-29.026674 -7.3267,0 0,29.026674 z"
         id="path3426"
         style="fill:#003b77;fill-opacity:1;fill-rule:nonzero;stroke:none" />
      <path
         d="m 1152.4276,94.237649 c 0,13.602421 12.183,15.208191 16.7648,15.208191 4.6015,0 16.8387,-1.60577 16.8387,-15.208191 0,-13.607328 -12.2372,-15.281849 -16.8387,-15.281849 -4.5818,0 -16.7648,1.674521 -16.7648,15.281849 m 7.3659,0 c 0,-8.15654 5.4704,-10.120788 9.3989,-10.120788 4.0365,0 9.5463,1.964248 9.5463,10.120788 0,8.107431 -5.5098,10.101141 -9.5463,10.101141 -3.9285,0 -9.3989,-1.99371 -9.3989,-10.101141"
         id="path3430"
         style="fill:#003b77;fill-opacity:1;fill-rule:nonzero;stroke:none" />
      <path
         d="m 1213.069,79.716946 6.8258,0 0,29.026674 -7.2626,0 -14.2361,-20.698263 -0.071,0 0,20.698263 -6.8356,0 0,-29.026674 7.6849,0 13.8138,20.19738 0.079,0"
         id="path3434"
         style="fill:#003b77;fill-opacity:1;fill-rule:nonzero;stroke:none" />
      <path
         d="m 1232.0975,99.801382 c 0.1178,1.630328 0.997,4.699468 7.371,4.699468 3.5011,0 7.3168,-0.70222 7.3168,-3.77136 0,-2.273618 -2.6124,-2.872713 -6.3052,-3.579843 l -3.7026,-0.736593 c -5.6276,-1.060694 -11.1275,-2.13612 -11.1275,-8.54939 0,-3.226277 2.0723,-8.907864 13.3569,-8.907864 10.7346,0 13.6024,5.819084 13.6417,9.389105 l -6.9534,0 c -0.1768,-1.306225 -0.8348,-4.370452 -7.2186,-4.370452 -2.706,0 -5.9419,0.874091 -5.9419,3.452166 0,2.29326 2.1607,2.735216 3.6339,3.024942 l 8.4855,1.758002 c 4.7091,0.933018 9.0403,2.597718 9.0403,7.763691 0,8.740906 -10.5775,9.472586 -13.7203,9.472586 -12.6839,0 -14.8497,-6.04497 -14.8497,-9.644458"
         id="path3438"
         style="fill:#003b77;fill-opacity:1;fill-rule:nonzero;stroke:none" />
      <path
         d="m 367.86761,64.194475 0,-1.792376"
         id="path3442"
         style="fill:#003b77;fill-opacity:1;fill-rule:nonzero;stroke:none" />
      <path
         d="m 467.22441,-16.398623 c -9.7867,0 -18.9892,2.843249 -26.7433,7.8422608 l -26.2423,16.941639 0,-58.8636038 -46.3708,39.03452 0,73.845906 c 0,21.906276 14.3339,40.561721 34.1484,47.078111 l 8.8537,2.75977 c -18.1398,-8.98643 -30.5488,-27.214654 -30.5488,-48.379427 0,-29.944962 25.1813,-54.2770852 56.1331,-54.2770852 28.9629,0 52.7648,21.1647732 55.7505,48.4580002 l -31.8896,-0.0442 c -2.8092,-10.69042 -12.5566,-18.542502 -24.0868,-18.542502 -13.789,0 -24.8575,11.102912 -24.8575,24.847738 0,13.636792 11.0685,24.788811 24.8575,24.788811 12.6694,0 23.144,-9.477497 24.6121,-21.744227 l 31.6193,-0.03457 c -0.7264,11.014521 -4.7826,21.071471 -11.1715,29.282028 0,0 19.569,-22.888401 26.262,-33.215435 6.0597,-9.41857 9.4087,-19.126866 9.4087,-30.151208 0,-27.4356352 -22.2502,-49.626727 -49.7347,-49.626727"
         id="path3446"
         style="fill:#003b77;fill-opacity:1;fill-rule:nonzero;stroke:none" />
    </g>
  </g>
</svg>
