<?xml version="1.0" encoding="UTF-8" standalone="no"?>
<!-- Created with Inkscape (http://www.inkscape.org/) -->

<svg
   width="64.33651mm"
   height="64.326294mm"
   viewBox="0 0 64.336512 64.326291"
   version="1.1"
   id="svg1"
   inkscape:version="1.4 (86a8ad7, 2024-10-11)"
   sodipodi:docname="Bank of China symbol.svg"
   xmlns:inkscape="http://www.inkscape.org/namespaces/inkscape"
   xmlns:sodipodi="http://sodipodi.sourceforge.net/DTD/sodipodi-0.dtd"
   xmlns="http://www.w3.org/2000/svg"
   xmlns:svg="http://www.w3.org/2000/svg">
  <sodipodi:namedview
     id="namedview1"
     pagecolor="#ffffff"
     bordercolor="#000000"
     borderopacity="0.25"
     inkscape:showpageshadow="2"
     inkscape:pageopacity="0.0"
     inkscape:pagecheckerboard="0"
     inkscape:deskcolor="#d1d1d1"
     inkscape:document-units="mm"
     inkscape:zoom="0.69753788"
     inkscape:cx="172.75048"
     inkscape:cy="294.60766"
     inkscape:window-width="1920"
     inkscape:window-height="1001"
     inkscape:window-x="-9"
     inkscape:window-y="-9"
     inkscape:window-maximized="1"
     inkscape:current-layer="layer1" />
  <defs
     id="defs1">
    <clipPath
       id="SVGID_2_">
		<rect
   id="use1"
   x="0"
   y="1.6799999"
   width="200"
   height="56.640999" />

	</clipPath>
  </defs>
  <g
     inkscape:label="Layer 1"
     inkscape:groupmode="layer"
     id="layer1"
     transform="translate(-198.4375,-134.32367)">
    <path
       clip-path="url(#SVGID_2_)"
       fill-rule="evenodd"
       clip-rule="evenodd"
       fill="#b10a32"
       d="M 31.637,35.457 21.489,35.454 c 0,0 -0.307,-0.034 -0.462,-0.303 -0.152,-0.263 -0.112,-0.403 -0.112,-0.403 v -9.459 c 0,0 -0.012,-0.336 0.168,-0.537 0.173,-0.193 0.491,-0.202 0.491,-0.202 h 13.371 c 0,0 0.214,-0.033 0.46,0.104 0.213,0.115 0.33,0.559 0.33,0.559 v 9.707 c 0,0 -0.117,0.27 -0.234,0.365 -0.105,0.09 -0.325,0.166 -0.325,0.166 z M 31.559,18.466 V 8.002 C 42.305,9.566 50.56,18.818 50.56,29.997 50.56,41.175 42.324,50.44 31.579,52.009 L 31.561,41.473 h 4.17 c 3.481,0 6.038,-2.609 6.038,-6.089 V 24.481 c 0,-3.479 -2.772,-6.02 -6.253,-6.02 z m -16.803,6.015 c 0,-3.479 2.117,-6.037 5.595,-6.037 L 24.984,18.43 V 8.027 C 14.292,9.64 6.091,18.856 6.091,29.997 c 0,11.143 8.202,20.383 18.893,21.994 L 24.967,41.549 21.092,41.546 c -3.482,0 -6.336,-2.683 -6.336,-6.162 z M 0,29.997 C 0,14.358 12.683,1.68 28.325,1.68 43.969,1.68 56.649,14.359 56.649,29.997 56.649,45.643 43.968,58.32 28.325,58.32 12.683,58.32 0,45.644 0,29.997"
       id="path1"
       transform="matrix(1.1357043,0,0,1.1357043,198.4375,132.41569)" />
  </g>
</svg>
