<svg height="129.978965" viewBox="-1.28756253 -1.28756253 269.83949506 45.49387606" width="769.355259" xmlns="http://www.w3.org/2000/svg"><path d="m67.31875 21.24c0-8.66-11.69625-15.67625-26.11875-15.67625-11.55 0-21.3475 4.5-24.79375 10.7375l.00125-.00875c-.31625.57625-.4975 1.21-.4975 1.86875 0 1.5575.97625 2.94125 2.5 3.83875l13.2475 7.6725c.68375.375 1.50375.59875 2.38625.59875.88 0 1.6975-.22375 2.37875-.59875l12.56875-7.275c.84-.49625 1.38125-1.26125 1.38125-2.12 0-.835-.51-1.57625-1.30875-2.075l-4.67-2.7075-10.35 5.99375-7.83375-4.53375c3.0225-2.73875 8.6625-4.5775 15.1175-4.5775 9.65125 0 17.4775 4.10875 17.4775 9.18625-.20875 7.855-11.68625 13.935-25.64125 13.57-13.955-.3675-25.1025-7.04125-24.8975-14.8975.09875-10.36125 13.6325-18.6275 30.22875-18.46625 1.4825.01625 2.92875.09625 4.34875.24-3.40875-1.26125-7.66375-2.01-12.2875-2.01-3.69625 0-7.15625.47875-10.13875 1.31375v-.0025c-12.005 3.31-20.4175 10.985-20.4175 19.92875 0 11.9725 15.0675 21.67875 33.66125 21.67875 18.59125 0 33.6625-9.70625 33.6625-21.67875z" fill="#154281"/><path d="m78.00875 24.14625h189.01875" fill="none" stroke="#231f20" stroke-miterlimit="10" stroke-width=".47375"/><g fill="#154281"><path d="m80.43125 6.75c.2275.17375.5425.415.9375.7225.4025.30875.8675.78125 1.39375 1.4175.525.63875.78625 1.34875.78625 2.13625-.0075.78625-.15875 1.32125-.45875 1.6-.3025.2825-.6425.4025-1.0225.365-.3825-.03875-.6675-.18625-.8625-.44375-.1925-.2575-.28625-.5025-.2825-.72625.00625-.22875.03625-.5575.0925-.98375.05125-.42625.05125-.89125 0-1.3975-.05625-.43375-.1425-.81-.2625-1.1275-.11875-.3175-.2925-.64125-.51875-.96875-.2275-.3275-.36625-.52625-.41875-.59375-.0525-.065-.08-.11875-.08875-.16125-.01-.04125 0-.08375.02875-.12875s.09625-.04.2.0125zm4.21625-.68125c1.045.9475 1.7625 1.70875 2.15125 2.29625.39.5875.63 1.21625.7225 1.89125.0925.67125.05625 1.18125-.11 1.52875-.12.26-.3075.48-.56875.64875-.25625.17125-.57625.23375-.9625.1875-.385-.04375-.64625-.23375-.77625-.57-.1325-.3325-.185-.63625-.15375-.90375 0-.0425.0275-.2175.07875-.525.04875-.30875.0775-.62125.08-.93875.0025-.31625-.01625-.63875-.05875-.96875-.0975-.68625-.225-1.19625-.39125-1.52375-.165-.32875-.30125-.5975-.40875-.8025-.1125-.2075-.18875-.3425-.2275-.40625-.03625-.0625-.06125-.11375-.06375-.155-.00375-.04125.015-.08375.05125-.1275.035-.04125.1-.02875.1975.03625zm2.97875 10.0225c.5125.1075 1.015.22 1.50125.34125.4875.12 1.10875.34875 1.8575.6875.75.33625 1.32875.7575 1.73 1.2625.40625.50625.62125.9875.65125 1.445.03125.4575-.05875.8475-.26875 1.1725-.2075.32125-.55.47625-1.01375.46375-.3825-.00375-.67375-.125-.86875-.3525-.1975-.23-.42125-.61875-.6625-1.1675-.24625-.5475-.54625-1.0375-.89375-1.475-.3525-.4375-.6625-.78375-.93875-1.0375-.27625-.25125-.59625-.48875-.9625-.7075-.37125-.22-.5925-.345-.6675-.3825-.07375-.03375-.1225-.0725-.1475-.11125-.0225-.03875-.02875-.09-.0125-.15375.015-.0625.08875-.0825.22-.06625zm-5.23 3.49625c-.85125.6175-1.9675 1.20625-3.34625 1.77l-.6825.2775c-.11625.04875-.19875.0375-.24375-.03375-.05125-.07375-.01-.15375.115-.24375l.63-.44c.14875-.10125.37875-.2925.68-.57375.30625-.28125.6975-.67125 1.17125-1.17125.475-.5.895-1.05 1.26125-1.66.365-.6075.605-1.03625.7175-1.2875l.25125-.5475c.06125-.12625.11-.2025.145-.22875.0325-.02625.095-.0225.1775.015.47375.22125 1.00125.50625 1.5925.85625.58875.35.87875.60375.86625.7575-.0125.09625-.0625.17-.15125.22375l-.26375.05375-.3125.05375c-.88375.8325-1.7525 1.5575-2.6075 2.17875m-4.595-5.83125 1.27375.11h9.30125c.25-.7.46625-1.345.65875-1.93375.19-.59.36375-1.205.5175-1.85.15625-.6425.30375-1.3275.44125-2.0575.135-.73.22-1.2075.2525-1.43625l.1-.8525v-.13625c.03375-.075.14875-.075.3375 0 .01125.015.22375.095.63375.24.40875.14625.85125.35125 1.32375.615.4725.2625.725.44625.75875.54625.03125.1025.0225.19125-.025.27125-.03625.06375-.25875.15625-.67125.27625-.2875.53125-.58 1.06625-.87625 1.59875-.295.53125-1.2375 2.105-2.83 4.71875h1.9825c.38375-.53625.6775-.94375.88875-1.215.2075-.2725.36875-.41625.48125-.4325.11-.01375.27625.06875.49875.24625.52875.4375.9075.80625 1.1375 1.10875.22625.3.325.48625.29.55375-.03125.06375-.1025.0975-.21.0975h-14.79375l-1.0875.05375z"/><path d="m98.66125 10.095c.725.77125 1.27875 1.48375 1.6725 2.135.3925.6525.71 1.305.94875 1.96375.2375.66.3525 1.2575.33375 1.79625-.0125.53875-.1525.96-.41125 1.27-.26125.30625-.59875.4525-1.0125.4275-.4175-.01875-.70375-.155-.8625-.4075-.15875-.24875-.22625-.58875-.2-1.0125l.0875-.9875c.035-.5075.0225-1.08125-.03625-1.72125-.05125-.48-.12-.90375-.205-1.27625-.0825-.36875-.18375-.70625-.29625-1.0125-.115-.30375-.22125-.55875-.3125-.7625-.09875-.2025-.17-.3425-.21625-.4225-.04875-.075-.08375-.1475-.1075-.215-.025-.065-.0125-.12375.03375-.17375.04875-.0525.13875-.0175.26875.1025zm-1.58875 10.74875 1.22.1075h3.99125v-12.92125l-.13125-2.4925c.06375-.1275.225-.17.47375-.135.91.13875 1.535.25625 1.87125.35875.34.10125.4825.225.43125.3725-.05125.145-.25875.34-.62375.5775v14.24h1.725l-.01-12.6525-.135-2.4925c.06375-.12.225-.16625.47375-.135.9225.1375 1.50625.24375 1.75625.325.24875.075.4.15625.45625.235.05625.08.07.16125.04625.24-.0275.07625-.2275.25-.59875.51125v9.94875c.17375-.38125.305-.68125.39625-.89875.09-.2125.24625-.6275.47125-1.24125.22125-.61125.41-1.15625.55875-1.62875s.295-.98.4325-1.525c.13625-.5425.22875-.9325.2775-1.16625l.125-.6725.08-.51125c.07125-.10375.22-.10375.4425 0l1.01.43c.29625.13125.58875.2825.8825.45375.2925.17.44125.295.44125.3775.00625.08-.0125.1425-.04625.19125-.07375.1025-.27625.1825-.60875.24375-.85625 1.60625-1.57125 2.8975-2.145 3.865-.56875.97125-1.00625 1.665-1.3025 2.0825l-1.015 1.47875v2.54125h1.93125c.39625-.51.68625-.9.88125-1.17125.19625-.27375.3425-.4175.4425-.4325.0975-.02125.27375.08375.5225.3125l.57625.51125c.115.10625.29.2825.53.52875.23875.245.34875.40625.33125.48375-.0175.07875-.12125.1175-.3075.1175h-14.2375l-1.085.05375z"/><path d="m120.84 6.27125c.11375-.06.1725-.13.1725-.21.005-.08125-.105-.17375-.325-.27375-.22-.1025-.57875-.22-1.07-.35125-.49-.12875-.78125-.21-.86875-.24-.09-.03125-.17375-.04875-.25375-.055-.06375 0-.0975.00875-.1075.0225-.005.015-.005.03375-.0025.0525 0 .0225-.015.11375-.05.27375l-.18625.89125c-.06125.24875-.16375.67-.31 1.25875-.15.5875-.3 1.105-.4525 1.54625-.15875.44375-.315.86375-.47875 1.2625-.16.3975-.2825.695-.365.8925l-.2525.55625c-.05375.12625-.0675.20625-.0375.245.03.04.09125.02.18-.0575l.33125-.28625.325-.3325.4025.4125.79875-.0625h.65875v2.4775h-1.37625l-1.175-.10875.52.51.7625-.06h1.26875v3.89375c0 .06375-.01375.155-.03375.27125-.0225.11875-.04625.21625-.07125.29375-.02875.0775-.085.14875-.16625.215-.0875.065-.12875.10875-.12875.12875-.005.02125.0225.08875.0775.2025l.965 1.9925c.05625.1075.085.16625.0925.18.01.01.0325.0125.0575.0075l.11-.13375.8025-.99625c.18625-.24 1.005-1.22 2.455-2.94375l.5375-.645c.06125-.0775.075-.14125.04125-.1925s-.1-.04875-.2025.00375l-.8425.4675c-.4425.245-1.07875.56625-1.90125.96125v-3.70625h2.67125c.05625 0 .1025-.04125.1475-.11625.045-.0775-.19875-.36125-.73-.845l-.52125-.4475c-.0925-.085-.16125-.12375-.205-.1175-.04125.00625-.08625.04-.13.09875-.04625.06-.34375.42-.9 1.08625h-.3325v-2.03875l.25875-.2125c.0175-.00875.04625-.0825.0825-.22625h1.6775c.04625 0 .09625-.0475.14875-.14.05625-.0925-.35125-.49-1.215-1.195-.1075-.0725-.17625-.10875-.2125-.10625-.04.005-.18375.1325-.4325.38625-.24625.25625-.45875.49-.64125.705h-2.25875l-.96-.09875c.57125-.64 1.1775-1.445 1.81875-2.41375h4.45375c.05125 0 .0875-.04.10375-.12125.0175-.07875-.21125-.335-.68-.76625l-.57625-.48625c-.105-.0875-.18875-.1325-.24625-.1275-.05625.0025-.40375.38375-1.03625 1.1425h-1.8575c.34-.56125.7175-1.2425 1.14-2.0375zm4.79125.94125h3.64v2.73625h-3.64zm0 3.0875h3.64v2.79h-3.64zm-1.72375-4.24375c-.085-.03-.14-.03875-.16625-.02125-.02625.01375-.025.195.0075.53625.03625.34625.05125.87375.05125 1.595v10.8725c0 .16-.02125.28875-.05875.3825-.03875.09125-.095.1675-.16375.22625-.10875.08125-.1625.125-.15875.14125.0025.015.02.05375.05.12l.7825 1.8575c.05125.155.09625.25375.135.29625.03875.04375.07375.06125.1.05875s.0825-.05875.17625-.16625l.52-.61875c.23125-.28.42375-.51125.57375-.6925l.735-.90625c.16625-.2025.66625-.77625 1.50125-1.72125l.24875.72875c.0825.24875.29.7075.62 1.37625.3275.66375.7075 1.17875 1.135 1.5425.43375.36125.6675.54.7125.5325.05375 0 .1175-.0725.195-.21625.07875-.1425.19125-.31125.3375-.50625.14625-.1925.33-.36625.5525-.51875.22125-.15375.3875-.24625.5025-.28375l.49375-.1525c.0875-.02375.13875-.065.14-.11875.00125-.05875-.0475-.10625-.14-.14875l-.26125-.1075c-.07875-.0325-.40875-.2-.985-.50875-.58-.3075-1.07375-.7075-1.47375-1.19875-.40125-.49-.79125-1.0325-1.175-1.63l.81625-.335 1.41125-.62625c.14875-.06625.385-.165.7075-.295l.57625-.11c.595-.10625.525-.34-.2125-.705-.74-.36125-1.225-.585-1.46-.67625-.10125-.02875-.17-.0375-.2025-.02625-.03.0125-.0875.075-.16625.18875l-.2825.43125c-.3625.5375-.83125 1.11875-1.41125 1.73875l-.315-.57125c-.06375-.11-.17125-.36-.3125-.7575-.1425-.39-.245-.6925-.305-.905-.05875-.20875-.1225-.4475-.19-.71625h1.7225v.19625c0 .23375.19375.35375.58375.35875.37125.01125.67375-.0325.9125-.13.2425-.0975.385-.1725.4275-.225.04625-.05.0875-.12125.1225-.20875l-.08375-1.9125v-3.84875c.3375-.15.5025-.30625.49625-.475-.0125-.18-.335-.405-.9675-.67375-.635-.26875-.985-.3975-1.05125-.385-.08125.01875-.18125.0975-.29125.23875-.11125.1375-.23625.3025-.38.48875h-3.31125zm1.72375 7.385h1.56c.05875.655.0975 1.0475.1175 1.17.01625.12375.06125.44375.12875.96125.06875.51625.12125.86.16125 1.03625.03875.1725.14375.55625.3175 1.1475-.735.34125-1.4975.6775-2.285 1.015z"/><path d="m147.7925 7.15625c.4175-.555.70625-.94625.8675-1.1675.16375-.22.29625-.33875.39625-.35375s.2475.055.44.21c.17125.1375.40375.33875.685.5975.28625.26125.4975.47125.63875.62875.14125.15875.19125.26875.15625.335-.03375.06625-.12875.0975-.2775.0975h-6.4425l-1.00875.04625-.4625-.51125 1.22.1175zm1.01375 4.74625c.36875-.6.645-1.01375.82375-1.24375s.32875-.36.44625-.39c.115-.03.3225.0875.6225.35125.64.58375 1.03125.95875 1.17 1.12.14125.1625.20625.2875.195.37625-.0125.09-.085.13375-.215.13375h-2.37c-.09125.16875-.19375.305-.30625.4125v7.43875c0 .39625-.03875.67625-.125.84375-.08375.1675-.2475.3225-.49375.47-.245.1475-.5775.26125-.99625.34125-.4175.08125-.7175.11125-.905.08625-.17-.01125-.27375-.045-.3125-.1025-.03375-.05875-.0575-.17625-.0575-.355-.0075-.18-.0275-.33375-.0725-.46-.04625-.13125-.1575-.275-.33-.4325-.1725-.15875-.39375-.28875-.6625-.39125l-.60125-.21375c-.17125-.06-.24-.1325-.19375-.215.04625-.08625.13375-.12.26625-.11l.4475.05625 1.13875.08c.2075.0175.3725.0025.4875-.04125.11875-.04375.1975-.12.245-.2225.04375-.1075.0675-.30125.0675-.58875l-.01875-6.59625h-3.8675l-1.005.05625-.46625-.5125 1.22.10875zm-8.1825.2225c.39.21125.595.35.62.4225.0375.16625-.08.32-.34125.45625v6.29l.0725 1.885c-.03125.11875-.08125.22-.15625.3-.06875.0825-.24625.15875-.525.235-.27625.0725-.57125.10875-.88125.10875-.1875.00875-.315-.01375-.385-.06625-.07375-.05-.13625-.135-.1925-.2525l.09125-2.05625v-5.7425c-1.04375.79625-1.8575 1.385-2.43125 1.76625l-.43625.2975c-.13.0775-.20625.07-.23375-.02125-.0325-.09375-.02-.175.0325-.2475l.37875-.45875c.3025-.3575.5675-.6775.78875-.96.22375-.28125.61125-.84125 1.16625-1.6825.5575-.84 1-1.57625 1.32625-2.21125l.3175-.62c.15375-.315.23875-.47625.25875-.47875.01875-.0025.0425-.00375.06875-.00375.15625.02.5775.25875 1.26375.72625.68375.46625 1.00875.7725.975.915-.045.155-.26375.24625-.6675.27125-.32125.32625-.69.705-1.11 1.1275m.06-4.16125-1.50625.9875c-.88875.555-1.73 1.0025-2.51875 1.34375l-.61875.27125c-.12625.0575-.215.0575-.2725-.005-.04875-.0625-.0175-.16.11-.2925l.39625-.3775.59-.565c.36375-.35875.78875-.82875 1.27875-1.415.48875-.58.91875-1.17625 1.29625-1.77875l.3125-.5025.18125-.35c.04125-.025.09875-.03125.16125-.025.0775.01.205.10125.38625.26625l.7775.58375c.1075.08625.31.2525.5975.5075.29125.255.43125.435.41875.54375-.0225.18-.12.25875-.28875.2425l-.44875.0275c-.37625.23875-.65875.4175-.8525.5375"/><path d="m158.1975 6.585h1.33625l-.0075 3.49h-1.35625zm-.0275 3.83875h1.35625v3.465h-1.3625zm.05375-4.165-1.74-.79375c-.135-.055-.2125-.0725-.235-.055-.02375.01625-.04125.055-.05375.1075l.06125 1.01375.06375 1.9025c.04125 1.255.07875 2.53.10375 3.82125.02875 1.2925.02875 2.36875 0 3.23-.025.8625-.08125 1.57-.1725 2.12125-.085.5525-.205 1.08625-.35625 1.5925-.1525.51-.32875.9325-.535 1.27375l-.35875.5925c-.095.1625-.11.2725-.04875.33375.06375.0575.17375.00875.3275-.14625l.4225-.40125c.305-.3.64625-.70625 1.0325-1.22.38125-.515.68625-1.105.90625-1.7725.22125-.6675.35125-1.345.395-2.03625.03875-.6925.07375-1.22375.09625-1.5925h1.39375v4.62c0 .3825-.0375.6125-.11.68875-.07125.08-.14.1275-.205.145-.06625.0175-.355.0025-.8625-.04625l-.60125-.05125c-.125-.00625-.19375.02375-.20625.09-.0125.06375.04875.1325.1825.205l.44625.24125c.37625.20875.59625.50625.655.89l.04375.37625c.0125.05375.03.09.05375.1075.06875.0775.3225.085.76625.01625.44875-.0625.78625-.165 1.02-.305.2325-.13625.39625-.28.49375-.4325.095-.15375.1425-.38.1425-.6775v-12.97375c.36125-.25625.5325-.4475.5225-.56625-.01125-.05375-.08375-.1375-.215-.255-.135-.11625-.4275-.285-.88375-.5025-.46-.2175-.71875-.3225-.77625-.31-.11625.03125-.32.2875-.62125.76875zm5.015-.5875c-.15625-.0675-.24375-.09375-.2625-.07625-.0225.0125-.04.04625-.0525.1l.05625.72625.025.945c.0075.32375 0 .71875-.0125 1.1825-.01625.46625-.09375.9975-.2375 1.59-.14375.59125-.44 1.16-.8875 1.70375l-.3125.37625c-.0625.07-.07125.14125-.0275.2075.04625.06375.115.0675.20375.01l.50375-.325c1.0575-.67375 1.71875-1.31875 1.99-1.9325.2675-.6125.425-1.2275.46375-1.845.03875-.61375.07125-1.16375.1-1.64125l1.72375.01125v3.66625c0 .45.08625.82625.25875 1.13.17125.3075.7775.455 1.82375.45125 1.37625 0 2.17375-.10875 2.39-.31875.22-.21375.3375-.43875.3475-.67875.0125-.23875-.05625-.46375-.2-.6725-.14875-.21-.3075-.375-.48375-.50375-.14375-.09375-.25-.13875-.3225-.135-.06875.0075-.1775.0475-.31875.12375-.1425.07375-.30875.1375-.50125.1875-.19625.05125-.4025.0825-.625.095-.275.0225-.4425-.005-.50375-.08625-.06375-.08-.0975-.23-.0975-.45375v-2.25375c.37875-.2125.56-.41.55-.59-.01-.095-.30125-.3-.86-.61375s-.86875-.46875-.92625-.46125c-.12125.0175-.345.26875-.685.7525h-1.5575zm.15875 14.09875c-.38125.27875-.75375.5275-1.115.7475-.36875.2225-.6475.3775-.8375.46875l-.57375.26625c-.15125.0725-.2125.1475-.18375.22625.0275.0775.105.1025.2375.07125l.59875-.135c1.4125-.3175 2.375-.6225 2.8875-.9175.5125-.29625.9075-.5375 1.195-.725 1.03125.8675 1.98 1.48625 2.855 1.86l.68125.26875c.115.04625.1925.06375.23375.0475.04375-.01375.16125-.22625.3575-.6325.2-.405.53875-.71375 1.025-.92375l.4925-.215c.12-.055.17875-.11375.17625-.1775-.00375-.06-.055-.10125-.15125-.11875l-.655-.08125c-.3425-.0425-.84625-.15625-1.50125-.34-.65375-.18625-1.3625-.52375-2.13125-1.01375l.57375-.8625c.16375-.23125.40125-.7075.7175-1.425.315-.71875.57875-1.385.78125-2.0025.40625-.2625.6075-.45875.60125-.5925-.01375-.12-.2925-.325-.8425-.6225-.55125-.29625-.84-.45625-.87125-.48-.17125-.10125-.29375-.145-.3575-.13-.0675.015-.15.1-.2525.25375-.10125.15125-.23.34375-.39375.57625h-4.02125l-1.11-.08125.49125.45875 1.03375-.0625.0075.46625c.005.6275.0725 1.28875.1975 1.9825.125.695.27625 1.2175.455 1.57625.175.355.3825.72375.6225 1.10625-.4375.49625-.8475.88375-1.22375 1.1625m2.13125-2.45625-.36-.37375c-.235-.22875-.47-.59625-.70375-1.105-.2375-.50875-.39625-.9475-.475-1.31625-.085-.37375-.14875-.70875-.20375-1.0075h3.2575l-.135.53875c-.05875.25125-.19375.6625-.40125 1.2375-.2075.57375-.39 1.005-.55125 1.28625-.16125.28625-.3025.535-.4275.74"/><path d="m179.65875 7.03125-1.515 2.3075c.23875.19.3425.34375.31.45625-.02875.115-.2025.2675-.5175.45625v9.2525l.1075 1.82125c-.02.1175-.06625.25-.14375.38375-.08.14-.3875.23-.92875.26875-.53875.0425-.8375.02375-.895-.05625-.05875-.08-.0975-.17375-.115-.2825l.11-2.27125v-7.16c-.25875.30625-.44875.53125-.57375.675l-.65625.7-.39625.42875c-.1025.12125-.1775.15625-.23125.10375-.05625-.05-.0425-.14625.0375-.29l.36-.62c.49-.86625.95-1.83625 1.3675-2.9125.4225-1.07375.7325-1.93375.9425-2.585.2025-.6475.35-1.1475.43-1.50125l.1925-.8075c.00875-.065.02125-.10625.02875-.12.01125-.01375.03375-.03.07875-.0425.07-.01625.46375.14 1.17375.4725.71.33125 1.135.55125 1.27.66375.13375.11125.1875.215.1575.31-.04375.12625-.24.24125-.59375.34875m6.06625-.21375c.02875.245.10625.705.23625 1.38125s.64 1.445 1.53125 2.30875c.88875.8675 1.865 1.55 2.92625 2.05125l.34.16125c.06375.03625.1025.08.1075.135.005.0525-.0325.09-.1075.1075l-.36875.1075c-.23875.0725-.45125.19375-.6375.3625-.185.17125-.345.35875-.48125.55625-.13375.2025-.22875.36125-.285.47625-.05625.1175-.1275.16625-.21.14625-.07625-.00875-.6175-.445-1.63125-1.3075-1.0125-.86125-1.6375-1.85375-1.8825-2.97375-.24125-1.12125-.48-2.34625-.71375-3.675l-.10625-.58375c-.02625-.11125-.03125-.19-.0275-.2275.00625-.0375.025-.07125.05-.09125.02625-.02.08375-.02.1725-.0025l.42.05375.5225.13375c.44125.10125.6525.25125.63.44875-.015.085-.1725.2275-.485.43125m-2.405 2.4125c-.1075.1425-.18875.25125-.235.32375l-1.1375 1.57875c-1.10875 1.52-2.13875 2.6825-3.09625 3.48875l-.44875.37875c-.0675.05875-.12625.06375-.17625.0125-.04875-.04875-.03375-.13625.05-.25625l.34125-.51125c.46875-.71.875-1.46875 1.21875-2.27375.3525-.80375.62-1.48875.81-2.05375.19-.5675.32-.98875.38625-1.27l.2075-.86125.02375-.19c.0075-.005.0225-.01375.05375-.025.1375-.04375.635.155 1.4825.5925l.68125.375c.22625.12625.34375.2375.355.33375.00875.09375-.01375.17-.0675.22375-.04875.0425-.195.08625-.44875.13375m-2.4425 4.97125-.68.04375-.39625-.4725.8625.07875h4.81875c.28625-.4125.5075-.63.67125-.64625.1975-.01875.56375.2025 1.09875.6575.5375.45875.79625.74.775.8425-.015.05125-.0475.1025-.0925.145-.045.04625-.1525.1325-.32625.25625-.065.83375-.1275 1.69-.17875 2.57875-.0525.89-.15625 1.6375-.3075 2.24875-.1475.61125-.34875 1.0375-.595 1.2825-.24875.24625-.54125.43625-.87875.56875-.33875.12875-.56125.205-.66375.22125-.1075.0175-.3075.04-.6125.0625-.3025.02375-.46.01-.47875-.045-.01-.0175-.01-.0875 0-.21.01125-.12125-.0225-.295-.1075-.51625-.1075-.28125-.2225-.49125-.35-.6275-.12875-.1375-.31-.27875-.55625-.42125l-.52-.295c-.12625-.06625-.18-.1325-.16125-.195.0175-.06125.08875-.08625.205-.06875l.7625.15375c.86625.18125 1.4175.16125 1.6525-.0575.23125-.21875.39-.49375.46875-.83.0825-.33625.14375-.8025.185-1.4.04125-.59875.1075-1.71375.1975-3.34625l-1.69625-.00875c-.1125.16125-.1825.2475-.205.26125l-.34125.2125c-.115.68125-.2475 1.43-.405 2.23875-.155.81125-.4525 1.54125-.8875 2.195-.435.6525-.97875 1.19-1.6225 1.61375-.6475.425-1.15.715-1.50625.87125l-.67625.29625c-.15.065-.235.05875-.26-.0225-.02375-.08.0125-.15375.10125-.22l.54375-.37875c.18125-.12375.4375-.3625.77125-.71625.3275-.3525.64125-.80625.93-1.35875.295-.55375.51625-1.1925.67625-1.91375.155-.725.26625-1.44875.3325-2.17375l.08125-.905z"/><path d="m199.855 14.365h4.99v2.38625h-4.99zm-3.20375-2.71375c-.4175.70375-.85375 1.36375-1.30875 1.97625-.455.6175-.86875 1.105-1.2375 1.465l-.43875.43125c-.12.1125-.15375.19875-.09625.25875.05875.05875.1375.05375.25-.0175l.46625-.29625c.48625-.30625.99375-.6625 1.51375-1.0675.52-.4075 1.205-1.04375 2.055-1.91125v7.1875l-.1075 1.875c.0125.21875.05375.36625.1225.43625.0725.07375.36625.10875.87625.105.51-.005.83-.06625.9525-.1925.11875-.1275.1975-.26875.2275-.43l-.07125-1.5325v-2.8375h4.99v2.30625c0 .25-.04875.43125-.13625.5425-.08875.10875-.5375.1325-1.345.06625l-.6725-.05375c-.1975-.01-.3075.0175-.32625.08875-.0225.06375.0325.12625.1625.18125l.57375.2425c.2175.09625.425.255.6275.475.19875.22125.30625.4425.325.665.02.22.04.3425.06375.365.04125.0675.305.07.79625.01375.48375-.05625.9375-.14375 1.3575-.265.42-.11875.6275-.50125.6275-1.14625v-8.36125c.36375-.25125.53625-.45625.5225-.61875-.02-.13375-.58125-.47-1.69-1.01625-.20375-.09375-.34-.13-.4125-.105-.07125.02125-.16125.10375-.26625.24625-.11.13875-.25875.335-.4425.5875h-4.6575l-.815-.3775c.49-.69375.97125-1.42125 1.445-2.18125h8.975c.19 0 .2925-.0475.3075-.13625.01125-.095-.15125-.295-.49625-.6025-.34375-.31-.725-.63125-1.1425-.975-.15625-.11875-.26875-.1725-.33625-.16625-.07125.00875-.19125.14125-.36625.39625-.17875.25375-.455.635-.83125 1.1425l-5.905-.0175c.33-.52625.68625-1.1325 1.0675-1.82125l.3875-.15375c.14625-.0575.2375-.1025.25875-.1325.06125-.065.0875-.13375.07625-.205-.0075-.07375-.12-.14375-.335-.21625l-.7275-.2425c-.23375-.0725-.6125-.17-1.135-.29625-.525-.125-.84-.18875-.9475-.18875-.05625.00625-.08375.015-.0975.02625l-.0275.19125-.2425.88875c-.0575.23-.16.54875-.30625.95375-.14125.4025-.305.80875-.48875 1.21375h-3.67125l-1.195-.1075.52.5125.55-.06375h3.64c-.55625 1.22625-1.0425 2.19-1.4625 2.895m3.20375 2.37125v-2.39375h4.9775l.0125 2.39375z"/><path d="m216.86125 6.72125-.135.835-.2675 1.07375c-.13.535-.19375.80875-.1975.8275l-.2075.7c-.05375.1625-.0725.27-.05375.325l.34875.42875.27125.35125c.21.2925.39125.6125.54875.95875.16125.3475.25375.6875.28375 1.0225.04125.61625-.04625 1.02375-.26625 1.22125-.2225.19625-.46.3125-.70625.35-.25.03375-.46.03875-.64125.00875l-.3425-.055c-.16125-.0225-.24875 0-.26375.0675-.01375.06875.05.1375.19375.2025l.315.16125c.275.14875.46125.4.56125.745.0975.3475.15125.5825.16125.705.00625.1225.02625.19625.05375.2225.02625.02875.065.04375.12125.05125.15875.03.38875-.0075.67875-.10875.29375-.1025.585-.27625.87375-.52375.29125-.24875.53-.57625.71625-.98375.1775-.40625.26375-.8025.24875-1.18875-.00875-.38625-.105-.76875-.28125-1.1475-.175-.38125-.4175-.76125-.71875-1.145-.29875-.3825-.78-.8225-1.43875-1.31875l.4925-.835.94-1.46875c.1025-.16875.25625-.42875.4525-.78125.44875-.21.68125-.38.6975-.51375.0125-.16125-.1975-.36625-.63-.615-.43375-.24625-.75875-.42125-.97-.52375-.21125-.1-.355-.145-.4275-.13375-.065.0175-.145.09625-.2425.24-.095.14-.22125.305-.37875.495h-1.48625l-1.39875-.66375c-.22-.1-.34875-.14375-.38125-.12375-.035.01625-.06625.0775-.09625.1775l.10125 2.26v10.82875l-.1275 2.405c.03.14375.09.26375.18125.36125.0875.095.33875.1125.75375.04875.41-.06375.6625-.14625.7575-.25125.0925-.105.1625-.23875.21-.39875l-.1075-2.21625v-12.0775zm4.52125.295h3.37375v2.63h-3.37375zm0 2.97875h3.37375v2.73625h-3.37375zm3.37375 3.30375c0 .0825.0475.15875.14.2275s.4.07625.92875.01875c.52625-.05625.8275-.14375.90625-.26375.07625-.12.12-.26625.135-.44l-.11-1.67875.01-3.5275c.37625-.25375.54875-.4625.5225-.61875-.03625-.1425-.32-.3425-.85-.59875-.53-.2575-.82-.405-.87625-.44125-.17875-.1-.3-.14625-.37125-.12875-.06875.015-.15875.1-.26875.25125-.11.15375-.24875.34125-.4175.5675h-3.05l-1.6075-.71625c-.19875-.08625-.30875-.1175-.33-.1-.02625.01875-.04375.07-.05375.15375l.12625 2.27875v10.27375c0 .335-.03875.555-.10625.6625l-.15375.2175c-.045.06-.0625.10375-.05375.13375l.1075.1875.84875 1.715c.04875.095.1275.12875.2375.1075l1.22875-1.265 2.28625-2.10875c.59375.935 1.10875 1.6175 1.5525 2.055l1.1775 1.05c.12875.12375.23125.1775.3075.16125.075-.01875.185-.135.3325-.3475.14375-.21125.34625-.44375.6-.6975.255-.25625.5075-.42625.75625-.505l.49625-.165c.12-.03625.17375-.09.15875-.16-.01-.0725-.04875-.12-.1125-.145l-.5425-.1775c-.7225-.235-1.43-.5975-2.12375-1.0875-.695-.49-1.1325-.84625-1.31125-1.06375-.18-.21875-.32875-.42-.45625-.605.97375-.4075 1.91-.81125 2.8-1.21125.4375.025.6675-.05625.69875-.24125.005-.05875-.13625-.23375-.43-.525-.295-.29125-.705-.59-1.23-.89375-.1025-.0525-.1675-.07375-.19375-.0575-.02625.01375-.0575.0625-.0925.13875l-.15375.3225c-.30125.61-.8625 1.315-1.68625 2.1175l-.665-1.05875c-.095-.13-.1975-.36625-.305-.705-.105-.3375-.2225-.78-.34125-1.32375h1.535zm-3.37375 5.39125v-5.60875l1.41-.01.08625 1.11625c.05625.6875.16125 1.30125.31125 1.84.15625.53625.3725 1.14625.66125 1.82875-.80875.31-1.63125.58875-2.46875.83375"/><path d="m242.09625 6.38125c.04125.25875.1025.58375.185.98375.08625.3975.28375.8625.60125 1.39375.3125.5325.92 1.21875 1.82875 2.05625.905.83625 1.99875 1.3625 3.28125 1.5775l.46375.08c.04625.0125.0825.05125.1.1175.01875.06625-.01.10625-.07375.12375l-.57125.18875c-.2125.0725-.4125.20375-.60125.3875-.1925.18625-.32125.34125-.3925.46625-.0675.125-.13875.28375-.21.47-.0725.19-.11625.30625-.13375.35125-.02.04375-.04875.08625-.09.12625-.04375.03875-.16375.00875-.35625-.08625-.72875-.33125-1.42375-.82625-2.09375-1.495-.66875-.6675-1.205-1.36-1.61-2.08375-.40375-.725-.71125-1.4225-.91875-2.09375-.21125-.67625-.35375-1.26-.44125-1.7525-.08375-.4925-.155-.81625-.2225-.9725l-.15375-.36875-.1875-.24125c-.06125-.15125-.0075-.24.16125-.27125.1225-.0175.41.015.84625.0975.44.07875.725.15625.8525.2275.12875.0725.195.15375.2025.2425.0025.16-.14875.32-.46625.475m-5.17625 12.48c2.14875-.0475 4.285-.10375 6.41375-.1625-.27375-.58375-.57875-1.045-.91-1.37625-.3325-.33125-.54125-.53375-.625-.61-.08375-.075-.16375-.14625-.245-.21375-.08-.07125-.12125-.15875-.11625-.26625.0025-.1075.15875-.09875.47.02625l.52125.21375c.31.1475.5825.275.82.3875.23625.115.58375.3 1.035.55375.45625.25375.86.62875 1.21375 1.12125.35125.4925.54875.9975.5925 1.52.04.52-.05375.93375-.2825 1.23875-.2325.30375-.5525.47125-.9625.4925-.4075.02375-.7075-.105-.9-.3875-.19375-.28-.30875-.68375-.35-1.20875l-.05375-.77125c-1.19875.165-2.1975.315-2.995.4425-.79625.12875-1.695.32375-2.69125.585-.995.25875-1.61125.435-1.85.5225l-.5475.215c-.25375.1025-.4075.0675-.46875-.1075l-.6975-1.72125c-.06125-.14875-.07875-.25375-.055-.31.02125-.05625.08625-.09875.1875-.13l.45875-.13375c.26-.07125.5775-.26875.94125-.58875s.85-1.07625 1.45375-2.2675c.6075-1.19375.97875-2.05625 1.12-2.59l.15375-.62125.05375-.26625c.04125-.0675.13-.075.25875-.02875 1.41875.575 2.195.955 2.32125 1.14.1275.18625.18875.31.18125.36625-.0225.115-.26625.22875-.73375.3425-1.1725 1.46125-2.40875 2.9925-3.7125 4.59375m-1.05375-6.985c-.6925.76875-1.25125 1.32125-1.685 1.65125-.43.33125-.88375.66875-1.3525 1.01l-.52.37625c-.12.09-.1975.095-.235.01875-.03375-.07875-.025-.155.0375-.23375l.385-.4575c.33-.40125.735-.905 1.21125-1.5125.47625-.60875.955-1.445 1.435-2.5125.47875-1.06625.79375-1.83375.9425-2.30125l.235-.7525.0775-.295c.0675-.05625.19625-.03875.38625.05375l.8275.34875c.1075.05375.32.17125.645.345.3225.1775.56125.32625.7175.44875.15375.12375.16375.2525.02625.39-.01625.0175-.1225.05375-.3125.10875l-.315.08c-.98375 1.38875-1.81375 2.4675-2.50625 3.23375"/><path d="m259.415 17.94875c-.0025.13875.04375.28125.14375.42375.1025.1425.42125.16375.9525.0625.535-.1025.85875-.27375.98-.5125l-.07375-1.4v-3.03125c.35375-.28125.52625-.48875.52-.62-.0225-.21-.56625-.565-1.62375-1.06625-.235-.11-.39375-.145-.47625-.11375-.08375.03375-.17.1325-.26625.2975-.09.16375-.205.345-.34375.54125h-3.2475l-1.81125-.75375c-.0925-.03375-.1425-.05125-.15625-.04875-.0175.0025-.04125.0275-.07875.0775l.07125 1.65625v3.51875l-.07875 1.3375c.0275.12625.075.2225.14375.29.06375.07.34.0975.81625.0825.475-.01625.75625-.10625.84-.28.08-.16875.12-.33625.12-.505v-1.005h3.58125zm-6.79875-11.59.44875.51125.915-.05625h10.36375l.0075 12.28375c0 .17375-.02125.29375-.06375.3625-.03875.07-.14875.13-.32375.17625-.18125.04625-.81375.0075-1.9-.1175l-.72875-.08c-.11875-.01125-.19375.02375-.22375.10875-.02875.08375.0125.1425.125.18l.7275.25c.93375.3275 1.4525.76375 1.555 1.30875l.05125.32375c.0175.07125.04625.125.08125.16.05875.0725.22375.0925.495.05375l.69875-.07875c.12375-.0175.3825-.08625.77375-.20125.395-.1175.625-.2975.68875-.54125.06375-.24875.0975-.57125.0975-.97125l-.01-12.63125c.3375-.24125.505-.435.505-.58625-.0075-.08625-.0925-.19375-.25375-.3175-.16625-.1225-.62-.4-1.36-.83875-.24125-.135-.405-.19125-.4925-.16125-.08375.03-.18875.13125-.3025.305-.1175.17375-.27125.395-.46375.665h-10.20875zm-.775 3.19125.46875.5125 1.015-.0525h9.90625c.105 0 .185-.0675.22875-.20125.05125-.13625-.46875-.615-1.5475-1.44125-.18-.13125-.33-.19125-.44625-.185-.115.01-.5425.5025-1.2775 1.47625h-7.01625zm4.005 3.32125h3.5625v3.6775h-3.5625z"/><path d="m78.2925 36.0375c1.19375-.03 1.365-.26875 1.365-1.2675v-6.24c0-1.03875-.1975-1.20875-1.365-1.265v-.265h4.17375v.265c-1.02625.0425-1.37625.1425-1.37625 1.265v6.24c0 1.09625.3375 1.2375 1.37625 1.2675v.26375h-4.17375z"/><path d="m92.7925 27.265c-.8825.09875-1.33375.15625-1.33375 1.79875v7.3925h-.23875l-6.1825-7.70125h-.03v5.48c0 1.4475.29625 1.75625 1.325 1.8025v.26375h-3.30625v-.26375c1.0675-.07375 1.36375-.2825 1.36375-1.8025v-6.19625c-.57875-.7025-.8-.77375-1.36375-.77375v-.26625h2.40375l5.38375 6.76h.025v-4.695c0-1.615-.39-1.7275-1.35125-1.79875v-.26625h3.305z"/><path d="m93.37 36.30125h3.99c4.30125 0 5.41-2.75375 5.41-4.62125 0-3.15-2.235-4.68-5.60625-4.68h-3.79375v.265c1.08125.085 1.2375.22625 1.2375 1.265v6.24c0 .985-.16875 1.20875-1.2375 1.2675zm2.67125-8.23375c0-.2825 0-.5475.66125-.5475 1.7675 0 2.55375.37625 3.23.9825.96875.87 1.30625 2.01 1.30625 3.18875 0 4.09-3.45625 4.09-4.355 4.09-.675 0-.8425-.0975-.8425-.575z"/><path d="m113.33625 27.265c-1.08125.11375-1.31875.325-1.31875 1.79875v3.6675c0 1.12375 0 3.7675-3.6375 3.7675-3.4875 0-3.4875-2.74-3.4875-3.58375v-4.385c0-1.03875-.19625-1.19375-1.26375-1.265v-.26625h3.9775v.26625c-1.11.08375-1.27625.26875-1.27625 1.265v4.49625c0 .90125 0 2.855 2.44125 2.855 1.09875 0 1.89625-.45125 2.30375-1.11125.1825-.31.3275-.77375.3275-1.91125v-3.795c0-1.50375-.33875-1.7425-1.3225-1.79875v-.26625h3.25625z"/><path d="m120.30875 29.7975h-.34875c-.24125-1.15375-1.14-2.41875-2.6175-2.41875-.70125 0-1.41625.43625-1.41625 1.305 0 2.11 4.6925 2.38875 4.6925 5.27 0 1.195-.9575 2.545-2.96625 2.545-1.0675 0-1.755-.4775-2.17625-.4775-.2975 0-.43875.2375-.43875.465h-.3075l-.4225-2.98125h.3225c.2675.66.98625 2.48625 2.8825 2.48625 1.12375 0 1.685-.80125 1.685-1.55875 0-.80125-.22375-1.27875-2.29-2.4875-1.29125-.745-2.1925-1.36375-2.1925-2.75625 0-1.59875 1.2825-2.38625 2.54625-2.38625.8425 0 1.6.4775 1.95125.4775.395 0 .46375-.32125.4925-.4775h.29625z"/><path d="m128.02375 36.30125h-4.10125v-.26375c1.27625-.05875 1.32-.38125 1.32-1.4225v-7.025h-.75875c-1.5475 0-1.92625.265-2.23625 1.7975h-.3375l.08625-2.3875h7.925l.085 2.3875h-.3375c-.2975-1.54625-.69-1.7975-2.23375-1.7975h-.75875v7.18c0 .95625.16875 1.2225 1.3475 1.2675z"/><path d="m139.66 36.0375c-.57625-.03-.9125-.2825-1.22375-.6625l-2.8925-3.55625c.715-.13875 2.54375-.4775 2.54375-2.36125 0-2.1625-2.31875-2.4575-3.56875-2.4575h-3.8775v.265c.98.1 1.19125.22625 1.19125 1.265v6.085c0 1.05375-.05625 1.34875-1.19125 1.4225v.26375h3.89125v-.26375c-1.125-.05875-1.26375-.325-1.26375-1.2675v-2.7675l.78375-.0275 3.34375 4.32625h2.26375zm-6.39125-8.0125c0-.4075.12375-.505.86875-.505.57625 0 2.4175.04125 2.4175 1.91125 0 2.0075-2.11 2.03625-3.28625 2.05z"/><path d="m140.16375 36.0375c1.195-.03 1.365-.26875 1.365-1.2675v-6.24c0-1.03875-.19625-1.20875-1.365-1.265v-.265h4.1775v.265c-1.0275.0425-1.37875.1425-1.37875 1.265v6.24c0 1.09625.3375 1.2375 1.37875 1.2675v.26375h-4.1775z"/><path d="m154.65375 36.0375c-.61625-.045-.81375-.19875-1.26375-1.225l-3.5025-7.98125h-.27875l-2.9225 6.89875c-.26875.62-.70125 1.645-1.025 1.99625-.25375.26625-.4925.29375-.71625.31125v.26375h2.78125v-.26375c-.2925 0-.955 0-.955-.5925 0-.155.0425-.35125.11125-.535l.64875-1.64375h3.68l.5775 1.34875c.0825.1975.26875.66125.26875.88625 0 .51875-.46625.53625-.98625.53625v.26375h3.5825zm-6.88625-3.3475 1.61625-3.86375 1.63125 3.86375z"/><path d="m159.15125 27.265c-.9575.05625-1.3075.15625-1.3075 1.265v6.6475c0 .56375.25.5775 1.41875.5775 2.11 0 3.00375-.0575 3.8075-1.9h.35375l-.6775 2.44625h-7.5575v-.26375c.89875-.05875 1.22125-.18625 1.22125-1.2675v-6.24c0-1.10875-.3375-1.19375-1.22125-1.265v-.26625h3.9625z"/><path d="m170.42125 27.93875c0-.21.0275-.405.31-.405.14 0 .3375-.015.6325-.015.9975 0 2.45875.26625 2.45875 1.93875s-1.6725 1.7-2.06875 1.7l-1.3325.01375zm-2.78375-.67375c1.15125.05625 1.35125.22625 1.35125 1.265v6.24c0 .99875-.16875 1.23625-1.35125 1.2675v.2625h4.695c3.12 0 3.40125-1.9375 3.40125-2.4725 0-1.475-1.1225-2.14875-2.34625-2.4025v-.02625c.6325-.15625 1.87-.465 1.87-2.0275 0-2.1775-2.46375-2.3725-3.68375-2.3725h-3.93625zm2.78375 4.4525c1.3475 0 1.80125.07125 2.275.21375.7325.225 1.41875.6875 1.41875 1.84 0 1.885-1.69625 2.00875-2.62625 2.00875-.815 0-1.0675-.055-1.0675-.575z"/><path d="m186.34375 36.0375c-.6175-.045-.81625-.19875-1.2675-1.225l-3.4975-7.98125h-.28l-2.92625 6.89875c-.26375.62-.70125 1.645-1.0225 1.99625-.25125.26625-.49125.29375-.71875.31125v.26375h2.7825v-.26375c-.29375 0-.95875 0-.95875-.5925 0-.155.0475-.35125.115-.535l.65-1.64375h3.68125l.57625 1.34875c.085.1975.26875.66125.26875.88625 0 .51875-.46875.53625-.98625.53625v.26375h3.58375zm-6.8875-3.3475 1.6175-3.86375 1.63 3.86375z"/><path d="m196.645 27.265c-.88625.09875-1.3375.15625-1.3375 1.79875v7.3925h-.2375l-6.18375-7.70125h-.0275v5.48c0 1.4475.2925 1.75625 1.3225 1.8025v.26375h-3.30375v-.26375c1.06875-.07375 1.3625-.2825 1.3625-1.8025v-6.19625c-.575-.7025-.80125-.77375-1.3625-.77375v-.26625h2.40375l5.38 6.76h.03v-4.695c0-1.615-.39625-1.7275-1.35375-1.79875v-.26625h3.3075z"/><path d="m202.79875 26.99875h3.68125v.26625c-.8425.07125-1.13625.11375-2.13625 1.09625l-2.67 2.6425 3.27625 3.5125c.91375 1.01125 1.40375 1.54625 2.2025 1.52v.26375h-4.2825v-.26375c.74125-.03.97875-.045.97875-.35375 0-.43375-1.34625-1.8825-1.82125-2.36l-1.4925-1.4775-.36625.2975v2.6275c0 .985.16875 1.20875 1.2675 1.26625v.26375h-3.965v-.26375c1.09875-.0575 1.265-.2675 1.265-1.42125v-6.085c0-1.095-.3075-1.19375-1.265-1.265v-.26625h3.9925v.26625c-1.09625.07125-1.295.22625-1.295 1.265v2.88125c3.17875-2.8525 3.58375-3.23375 3.58375-3.71 0-.38-.2625-.4075-.95375-.43625z"/><path d="m219.325 29.9625c-.35125-1.47375-1.3625-2.59875-3.09125-2.59875-.7025 0-1.51875.28-2.10875.8575-.5475.53375-1.165 1.43375-1.165 3.4575 0 2.97875 1.67 4.20125 3.44 4.20125 1.73125 0 2.74375-.9975 3.17625-1.42l.25375.2525c-.015.0275-1.22375 1.78625-3.80875 1.78625-2.26375 0-4.69125-1.35125-4.69125-4.84875 0-3.14875 2.35875-4.84875 4.775-4.84875 1.2525 0 2.165.46375 2.475.46375.06875 0 .5325 0 .64625-.46375h.29625l.125 3.16125z"/><path d="m225.5225 36.49875c2.54 0 4.59375-1.84125 4.59375-4.835 0-3.23125-2.29-4.8625-4.59375-4.8625s-4.59625 1.63125-4.59625 4.8625c0 2.99375 2.05125 4.835 4.59625 4.835m0-.50625c-1.56125 0-2.99625-1.25125-2.99625-4.3425 0-3.20375 1.5625-4.34375 2.99625-4.34375 1.4325 0 2.9925 1.14 2.9925 4.34375 0 3.09125-1.435 4.3425-2.9925 4.3425"/><path d="m231.7175 35.6975c0-.44875.35375-.80375.77375-.80375.4225 0 .78875.3675.78875.80375 0 .52-.49375.7575-.78875.7575s-.77375-.225-.77375-.7575"/><path d="m235.43 38.015c.92625-.59125 1.15375-1.2225 1.15375-1.48875 0-.125-.1-.19625-.2-.19625-.0275 0-.06875.0125-.125.0275-.0425.015-.1125.02875-.21.02875-.36625 0-.87375-.14125-.87375-.7025 0-.60625.46375-.81625.815-.81625.325 0 1.14.18375 1.14 1.35 0 .99625-1.1525 1.9275-1.57375 2.06625z"/><path d="m242.17625 27.265c-.96.05625-1.30625.15625-1.30625 1.265v6.6475c0 .56375.24875.5775 1.41625.5775 2.10625 0 3.00625-.0575 3.80875-1.9h.35l-.6725 2.44625h-7.5625v-.26375c.9-.05875 1.2225-.18625 1.2225-1.2675v-6.24c0-1.10875-.3375-1.19375-1.2225-1.265v-.26625h3.96625z"/><path d="m251.8275 36.30125h-4.10125v-.26375c1.27625-.05875 1.32-.38125 1.32-1.4225v-7.025h-.7575c-1.54875 0-1.925.265-2.235 1.7975h-.34l.08375-2.3875h7.93l.085 2.3875h-.34c-.295-1.54625-.6875-1.7975-2.23375-1.7975h-.75875v7.18c0 .95625.17125 1.2225 1.3475 1.2675z"/><path d="m254.43 36.30125h3.99125c4.3 0 5.40875-2.75375 5.40875-4.62125 0-3.15-2.2325-4.68-5.60625-4.68h-3.79375v.265c1.07875.085 1.23375.22625 1.23375 1.265v6.24c0 .985-.16625 1.20875-1.23375 1.2675zm2.66625-8.23375c0-.2825 0-.5475.66375-.5475 1.77 0 2.55625.37625 3.23.9825.97.87 1.30625 2.01 1.30625 3.18875 0 4.09-3.45625 4.09-4.35625 4.09-.6725 0-.84375-.0975-.84375-.575z"/><path d="m265.475 35.6975c0-.44875.34875-.80375.77125-.80375.42 0 .7875.3675.7875.80375 0 .52-.49125.7575-.7875.7575-.295 0-.77125-.225-.77125-.7575"/></g></svg>