<?xml version="1.0" encoding="UTF-8" standalone="no"?>
<!-- Created with Inkscape (http://www.inkscape.org/) -->

<svg
   width="205.12218mm"
   height="34.19141mm"
   viewBox="0 0 205.12219 34.19141"
   version="1.1"
   id="svg1"
   xmlns="http://www.w3.org/2000/svg"
   xmlns:svg="http://www.w3.org/2000/svg">
  <defs
     id="defs1" />
  <g
     id="layer1"
     transform="translate(16.226458,-113.75435)">
    <path
       d="m 129.46663,141.10515 h 1.67167 v -20.51582 h -1.67167 z"
       fill="#bb202b"
       id="path7"
       style="stroke-width:1.17475" />
    <path
       d="m 97.41968,125.44353 v 0 h -5.522498 v -1.75273 h 5.522498 z m -5.522498,2.18151 v 0 h 5.522498 v 1.78679 h -5.522498 z m 7.388,4.72602 c -0.01154,0.0133 -1.22996,0.96681 -2.929823,1.9865 -0.675484,-0.94097 -0.865791,-1.94889 -1.036132,-2.35417 h 4.635565 v -10.8653 H 89.165889 v 18.61274 l 0.03508,0.0266 c 0,0 0.615571,0.49808 1.334518,1.27695 l 0.03419,0.0355 0.04129,-0.004 c 1.313369,-0.31835 3.27168,-0.48046 3.721608,-0.48987 l -0.0049,-2.48458 c -0.8329,0 -2.094579,0.16917 -2.430559,0.21712 v -6.32012 h 0.647286 c 0.359462,2.39294 3.582987,7.58299 6.571551,9.17126 l 2.049997,-2.0511 c -1.745684,-1.10427 -2.91221,-2.4329 -3.068449,-2.63847 1.560065,-1.04904 2.714849,-1.862 2.723069,-1.87372 l 0.0622,-0.0493 -1.529527,-2.26022 z"
       fill="#2c292a"
       id="path8"
       style="stroke-width:1.17475" />
    <path
       d="m 84.788533,120.58657 h -2.739515 c 0,0 -0.163304,3.48194 -2.174464,7.21296 l 1.542447,2.1768 h 1.271079 v 1.7645 h -2.506917 v 2.72776 h 2.506917 v 5.33453 l 1.266381,1.29106 0.04218,-0.004 c 0.5862,-0.13276 2.519838,-0.4218 4.180935,-0.48281 v -2.35302 c -1.303975,0 -2.516317,0.12698 -2.765361,0.15984 v -3.94481 h 2.804127 v -2.72775 h -2.804127 v -1.76451 h 2.439954 v -2.7254 h -4.666107 c 0.232611,-0.54155 0.433477,-1.07253 0.601473,-1.58592 h 4.462875 v -2.73127 h -3.756848 c 0.257253,-1.36623 0.29486,-2.34716 0.29486,-2.34716"
       fill="#2c292a"
       id="path9"
       style="stroke-width:1.17475" />
    <path
       d="m 47.456502,120.5943 h -3.214116 c 0,0 0.408791,1.21705 0.580326,2.38592 h -8.365395 v 9.03149 c -0.03641,1.8878 -0.38295,4.75067 -2.698401,7.33746 l 2.257873,1.78213 c 3.464337,-3.98362 3.378578,-8.58745 3.378578,-10.46118 0,-2.26724 -0.03508,-4.96214 -0.03508,-4.96214 h 15.207138 v -2.72776 h -6.539836 c -0.214985,-1.3486 -0.570926,-2.38592 -0.570926,-2.38592"
       fill="#2c292a"
       id="path10"
       style="stroke-width:1.17475" />
    <path
       d="m 65.833472,131.30837 v 0 h 5.266403 c -0.427616,0.87872 -1.999425,2.68665 -2.747738,3.2611 -0.744792,-0.70721 -2.02527,-2.35183 -2.518665,-3.2611 m 4.736592,4.96566 c 1.75625,-1.64462 3.302223,-3.92718 4.019993,-5.94068 l -1.631726,-1.74803 h -8.203278 c 0.166811,-0.43245 0.520413,-1.21354 0.660206,-1.62939 h 11.395078 v -2.72074 h -2.011173 c -0.446407,-1.86316 -0.378288,-1.6658 -1.054927,-3.64524 h -2.997963 c 0,0 0.824677,2.2438 1.12189,3.64524 h -5.674045 c 0.427617,-1.91955 0.451104,-3.64524 0.451104,-3.64524 h -2.764184 c 0,0 -0.0012,1.74803 -0.493395,3.64524 h -2.667858 c 0.581502,-2.16859 0.567405,-3.64524 0.567405,-3.64524 H 58.55942 c 0,0 -0.0084,1.80441 -0.972693,4.55451 l -0.01643,0.0444 1.36506,1.76916 h 3.631152 c -0.852871,2.30369 -2.551557,6.01003 -6.437632,9.80565 l 1.885473,1.93713 c 2.490471,-2.44582 4.031742,-4.60149 5.166553,-6.60206 0.420556,0.8634 1.103091,2.02997 2.14979,3.25052 0.237318,0.27617 0.480474,0.5439 0.729523,0.80471 -2.000602,1.22291 -4.129249,1.83847 -6.513991,2.28371 l 1.133634,2.67488 c 3.136581,-0.57915 5.778594,-1.75624 7.610032,-3.01205 2.121596,1.54361 4.776534,2.45994 7.756871,3.00148 l 0.992664,-2.6878 c -2.384742,-0.3734 -4.676679,-1.03381 -6.469347,-2.13808"
       fill="#2c292a"
       id="path11"
       style="stroke-width:1.17475" />
    <path
       d="m 105.18959,128.64682 c 2.41058,-1.16302 5.11133,-5.40384 5.19827,-8.05292 h -2.73247 c -0.16565,2.34481 -2.63849,5.02675 -3.76977,5.66349 z"
       fill="#2c292a"
       id="path12"
       style="stroke-width:1.17475" />
    <path
       d="m 109.04818,125.80411 c -0.51689,2.80998 -3.76625,6.08755 -5.63528,6.93807 l 1.15126,2.47402 c 0.89751,-0.41603 1.75625,-1.20529 2.42938,-1.694 v 7.57948 h 2.7266 v -10.3178 c 0.93274,-1.32041 1.81263,-2.96979 2.05346,-4.97977 z"
       fill="#2c292a"
       id="path13"
       style="stroke-width:1.17475" />
    <path
       d="m 123.61403,121.26598 h -10.57159 v 2.82646 h 10.57159 z"
       fill="#2c292a"
       id="path14"
       style="stroke-width:1.17475" />
    <path
       d="m 124.26518,127.47759 h -11.96953 v 2.72895 h 7.0391 v 8.06584 c 0,0 -2.48928,-0.25042 -4.52865,-0.15274 v 2.58444 c 2.57152,-0.0266 7.35745,0.39827 7.35745,0.39827 v -10.89581 h 2.10163 z"
       fill="#2c292a"
       id="path15"
       style="stroke-width:1.17475" />
    <path
       d="m 145.3537,141.08339 c -2.7959,0 -5.29576,-0.98328 -7.04731,-2.77007 -1.8009,-1.84433 -2.75597,-4.41354 -2.75128,-7.4291 -0.004,-3.02146 0.95273,-5.60355 2.7642,-7.47612 1.75859,-1.81263 4.25611,-2.81469 7.02853,-2.81469 2.48106,0 4.67313,0.68252 6.35305,1.7304 l -0.99034,2.84289 c -1.82791,-1.19236 -3.19649,-1.74683 -5.34862,-1.75509 -1.98767,0.003 -3.65934,0.6755 -4.8388,1.95129 -1.20411,1.29573 -1.84082,3.1671 -1.84082,5.40384 0,2.23909 0.64023,4.13395 1.85963,5.4755 1.20528,1.31925 2.89223,2.01704 4.87638,2.01704 2.11922,0 3.95068,-0.79529 5.58358,-2.06522 l 0.52161,3.17771 c -1.75038,1.08664 -3.88611,1.71162 -6.16158,1.71162 z"
       fill="#2c292a"
       id="path16"
       style="stroke-width:1.17475" />
    <path
       d="m 163.41654,141.08339 c -2.79236,0 -5.29461,-0.98328 -7.04264,-2.77007 -1.80086,-1.84198 -2.75125,-4.41119 -2.75125,-7.4291 0,-3.02146 0.95389,-5.6071 2.76066,-7.47612 1.7598,-1.81263 4.25259,-2.81469 7.02852,-2.81469 2.61969,0.003 4.99975,0.74477 6.66555,1.79265 l -1.03261,2.86642 c -1.73746,-1.11484 -3.60768,-1.84087 -5.61766,-1.84087 -1.98531,0.003 -3.66052,0.6755 -4.83525,1.95129 -1.20999,1.29573 -1.84087,3.1671 -1.84087,5.40384 0,2.2414 0.64025,4.13395 1.8573,5.4755 1.20412,1.31925 2.89106,2.01704 4.87756,2.01704 1.62584,0 3.04495,-0.48986 3.89783,-0.88223 v -4.10811 h -5.34279 v -2.91104 h 8.35249 v 8.78126 c -2.2414,1.37564 -5.12896,1.94072 -6.96627,1.94423 z"
       fill="#2c292a"
       id="path17"
       style="stroke-width:1.17475" />
    <path
       d="m 177.71112,129.40126 v 0 h 3.34922 c 1.30514,0 2.35538,-0.27972 3.05197,-0.80586 0.66374,-0.50514 0.9927,-1.18299 1.00562,-2.07579 -0.0133,-0.86109 -0.3077,-1.50485 -0.89635,-1.96301 -0.61907,-0.47579 -1.57536,-0.72599 -2.75715,-0.72599 h -3.75331 z m 0,8.48053 v 0 h 3.96714 c 1.36037,0 2.43054,-0.24908 3.09543,-0.71661 0.65317,-0.47579 0.95394,-1.11364 0.96686,-2.06873 -0.0133,-0.99385 -0.38406,-1.65168 -1.20413,-2.13569 -0.74361,-0.4289 -1.862,-0.65552 -3.23174,-0.65552 h -3.59356 z m -3.15302,2.9392 v -19.92846 h 6.68668 c 2.31191,0 4.09279,0.50279 5.30398,1.49429 1.13127,0.92454 1.72689,2.27434 1.71984,3.9131 0.0178,1.76916 -0.91513,3.23174 -2.61148,4.11868 l -0.19048,0.10123 0.19492,0.0728 c 2.06873,0.8047 3.24346,2.4364 3.2341,4.46872 0,1.76566 -0.62733,3.21296 -1.82089,4.18213 -1.28281,1.04904 -3.18002,1.57766 -5.64817,1.57766 z"
       fill="#2c292a"
       id="path18"
       style="stroke-width:1.17475" />
    <path
       d="m 3.5504569,126.86806 c -0.7236446,-1.4755 -1.4073513,-2.97799 -2.0546367,-4.49692 -1.19471962,-2.83116 -2.23202794,-5.70225 -3.1142648,-8.61679 -3.2446588,9.34042 -8.2561401,17.91726 -14.6080134,25.23598 4.575651,-1.06551 9.238233,-1.7598 13.9689509,-2.06758 2.16036632,-3.21411 4.0975294,-6.5704 5.807964,-10.05469"
       fill="#bb202b"
       id="path19"
       style="stroke-width:1.17475" />
    <path
       d="m 3.5504569,136.72819 c -1.9442094,0 -3.88137256,0.0648 -5.807964,0.19137 -2.6126426,3.89192 -5.5530414,7.57242 -8.7906539,11.0262 4.7189696,-0.91162 9.6153306,-1.35331 14.5986179,-1.35331 4.9856404,0 9.8831731,0.44178 14.6044921,1.35331 -3.241134,-3.45378 -6.178011,-7.13428 -8.790654,-11.0262 -1.9277637,-0.12699 -3.8637546,-0.19137 -5.8138381,-0.19137"
       fill="#73101a"
       id="path20"
       style="stroke-width:1.17475" />
    <path
       d="m -16.226342,138.99077 5.178296,8.95277 c 3.2411383,-3.45258 6.1780118,-7.12957 8.7918309,-11.0215 -4.7283691,0.31036 -9.3944759,1.00087 -13.9701269,2.06873"
       fill="#ed2635"
       id="path21"
       style="stroke-width:1.17475" />
    <path
       d="m -2.2555091,136.92133 c 2.15918972,-3.21296 4.0940041,-6.56804 5.807964,-10.05584 1.7139598,3.4878 3.6546483,6.84288 5.8103127,10.05584 -1.9265915,-0.12698 -3.8614014,-0.19269 -5.8103127,-0.19269 -1.945386,0 -3.8802004,0.0657 -5.807964,0.19269"
       fill="#ffffff"
       id="path22"
       style="stroke-width:1.17475" />
    <path
       d="m 8.7226484,113.75572 c -0.8787115,2.91455 -1.9218895,5.78683 -3.1166136,8.6168 -0.6425879,1.51661 -1.3262902,3.01791 -2.0569854,4.49577 1.7174852,3.48429 3.6558205,6.84172 5.8138381,10.05349 4.7295415,0.31035 9.3956485,1.00326 13.9689505,2.06993 -6.351873,-7.32103 -11.364531,-15.89556 -14.6091896,-25.23599"
       fill="#ed2635"
       id="path23"
       style="stroke-width:1.17475" />
    <path
       d="m 3.5504569,126.86806 c 0.7295186,-1.4755 1.4132253,-2.97799 2.058162,-4.49692 1.1923708,-2.83116 2.2378976,-5.70225 3.1142604,-8.61679 H -1.6184446 c 0.88223686,2.91454 1.91954518,5.78563 3.1142648,8.61679 0.6472854,1.51893 1.3309921,3.02142 2.0546367,4.49692"
       fill="#73101a"
       id="path24"
       style="stroke-width:1.17475" />
    <path
       d="m 18.154949,147.94403 5.177124,-8.95392 c -4.574478,-1.06787 -9.240585,-1.7598 -13.967778,-2.06758 2.612643,3.89077 5.54952,7.56891 8.790654,11.0215"
       fill="#bb202b"
       id="path25"
       style="stroke-width:1.17475" />
  </g>
</svg>
